<svg width="600" height="600" viewBox="0 0 600 600" fill="none" xmlns="http://www.w3.org/2000/svg">
<rect x="43.5" y="154.5" width="513" height="291" rx="24.5" fill="#EFF4FF"/>
<rect x="43.5" y="154.5" width="513" height="291" rx="24.5" stroke="#B2CCFF"/>
<g filter="url(#filter0_dd_773_7205)">
<g clip-path="url(#clip0_773_7205)">
<rect x="88" y="127" width="245" height="346" rx="12" fill="white"/>
<mask id="path-4-inside-1_773_7205" fill="white">
<path d="M88 127H333V167H88V127Z"/>
</mask>
<path d="M88 127H333V167H88V127Z" fill="#EFF4FF"/>
<path d="M333 166H88V168H333V166Z" fill="#155EEF" mask="url(#path-4-inside-1_773_7205)"/>
<g clip-path="url(#clip1_773_7205)">
<path d="M250.333 433V473H252.333V433H250.333ZM170.667 473V433H168.667V473H170.667Z" fill="#155EEF" mask="url(#path-8-inside-3_773_7205)"/>
</g>
<path d="M88 434H333V432H88V434Z" fill="#155EEF" mask="url(#path-6-inside-2_773_7205)"/>
<rect x="104.5" y="183" width="35" height="35" rx="17.5" fill="#D1E0FF"/>
<path d="M104.5 242C104.5 233.716 111.216 227 119.5 227H235.75C244.034 227 250.75 233.716 250.75 242V265.75C250.75 274.034 244.034 280.75 235.75 280.75H104.5V242Z" fill="#155EEF"/>
<rect x="120.75" y="240.75" width="103.75" height="5" rx="2.5" fill="#EAECF0"/>
<rect x="120.75" y="252" width="112.5" height="5" rx="2.5" fill="#EAECF0"/>
<rect x="120.75" y="263.25" width="73.75" height="5" rx="2.5" fill="#EAECF0"/>
<rect width="35" height="35" rx="17.5" transform="matrix(-1 0 0 1 316.25 273)" fill="#D1E0FF"/>
<path d="M316.25 332C316.25 323.716 309.534 317 301.25 317H185C176.716 317 170 323.716 170 332V355.75C170 364.034 176.716 370.75 185 370.75H316.25V332Z" fill="#D1E0FF"/>
<rect width="103.75" height="5" rx="2.5" transform="matrix(-1 0 0 1 291 330.75)" fill="white"/>
<rect width="112.5" height="5" rx="2.5" transform="matrix(-1 0 0 1 300 342)" fill="white"/>
<rect width="73.75" height="5" rx="2.5" transform="matrix(-1 0 0 1 261 353.25)" fill="white"/>
<rect x="131" y="384" width="160" height="32" rx="16" fill="#155EEF"/>
<path d="M161.616 396.141V394.818H169.496V396.141H166.32V405H164.788V396.141H161.616ZM172.302 405.169C171.818 405.169 171.38 405.08 170.989 404.901C170.598 404.718 170.288 404.455 170.059 404.11C169.834 403.765 169.721 403.343 169.721 402.842C169.721 402.411 169.804 402.057 169.97 401.778C170.136 401.5 170.359 401.28 170.641 401.117C170.923 400.955 171.238 400.832 171.586 400.749C171.934 400.666 172.288 400.603 172.65 400.56C173.107 400.507 173.478 400.464 173.763 400.431C174.048 400.395 174.256 400.337 174.385 400.257C174.514 400.178 174.579 400.048 174.579 399.869V399.835C174.579 399.4 174.456 399.064 174.211 398.825C173.969 398.587 173.608 398.467 173.127 398.467C172.626 398.467 172.232 398.578 171.944 398.8C171.659 399.019 171.461 399.263 171.352 399.531L169.955 399.213C170.121 398.749 170.363 398.375 170.681 398.089C171.002 397.801 171.372 397.592 171.79 397.463C172.207 397.33 172.646 397.264 173.107 397.264C173.412 397.264 173.735 397.301 174.077 397.374C174.421 397.443 174.743 397.572 175.041 397.761C175.343 397.95 175.59 398.22 175.782 398.572C175.974 398.92 176.07 399.372 176.07 399.929V405H174.618V403.956H174.559C174.463 404.148 174.318 404.337 174.126 404.523C173.934 404.708 173.687 404.862 173.385 404.985C173.084 405.108 172.723 405.169 172.302 405.169ZM172.625 403.976C173.036 403.976 173.387 403.895 173.679 403.732C173.974 403.57 174.198 403.358 174.35 403.096C174.506 402.831 174.584 402.547 174.584 402.246V401.261C174.531 401.314 174.428 401.364 174.275 401.411C174.126 401.454 173.956 401.492 173.763 401.525C173.571 401.555 173.384 401.583 173.202 401.609C173.019 401.633 172.867 401.652 172.744 401.669C172.456 401.705 172.192 401.767 171.954 401.853C171.718 401.939 171.529 402.063 171.387 402.226C171.248 402.385 171.178 402.597 171.178 402.862C171.178 403.23 171.314 403.509 171.586 403.697C171.858 403.883 172.204 403.976 172.625 403.976ZM179.537 394.818V405H178.05V394.818H179.537ZM182.904 402.41L182.894 400.595H183.152L186.195 397.364H187.975L184.504 401.043H184.271L182.904 402.41ZM181.536 405V394.818H183.023V405H181.536ZM186.359 405L183.624 401.371L184.649 400.332L188.183 405H186.359ZM196.599 397.364V398.557H192.428V397.364H196.599ZM193.547 395.534H195.033V402.758C195.033 403.046 195.076 403.263 195.162 403.409C195.248 403.552 195.359 403.649 195.495 403.702C195.635 403.752 195.785 403.777 195.948 403.777C196.067 403.777 196.172 403.769 196.261 403.752C196.35 403.736 196.42 403.722 196.47 403.712L196.738 404.94C196.652 404.973 196.529 405.007 196.37 405.04C196.211 405.076 196.012 405.096 195.774 405.099C195.383 405.106 195.018 405.036 194.68 404.891C194.342 404.745 194.069 404.519 193.86 404.214C193.651 403.91 193.547 403.527 193.547 403.066V395.534ZM201.378 405.154C200.662 405.154 200.037 404.99 199.504 404.662C198.97 404.334 198.556 403.875 198.261 403.285C197.966 402.695 197.818 402.005 197.818 401.217C197.818 400.424 197.966 399.732 198.261 399.138C198.556 398.545 198.97 398.085 199.504 397.756C200.037 397.428 200.662 397.264 201.378 397.264C202.094 397.264 202.719 397.428 203.252 397.756C203.786 398.085 204.2 398.545 204.495 399.138C204.79 399.732 204.938 400.424 204.938 401.217C204.938 402.005 204.79 402.695 204.495 403.285C204.2 403.875 203.786 404.334 203.252 404.662C202.719 404.99 202.094 405.154 201.378 405.154ZM201.383 403.906C201.847 403.906 202.231 403.784 202.536 403.538C202.841 403.293 203.067 402.967 203.213 402.559C203.362 402.151 203.436 401.702 203.436 401.212C203.436 400.724 203.362 400.277 203.213 399.869C203.067 399.458 202.841 399.129 202.536 398.88C202.231 398.631 201.847 398.507 201.383 398.507C200.916 398.507 200.528 398.631 200.22 398.88C199.915 399.129 199.688 399.458 199.539 399.869C199.393 400.277 199.32 400.724 199.32 401.212C199.32 401.702 199.393 402.151 199.539 402.559C199.688 402.967 199.915 403.293 200.22 403.538C200.528 403.784 200.916 403.906 201.383 403.906ZM216.024 399.228L214.677 399.467C214.621 399.294 214.531 399.13 214.409 398.974C214.289 398.819 214.127 398.691 213.921 398.592C213.716 398.492 213.459 398.442 213.151 398.442C212.73 398.442 212.378 398.537 212.097 398.726C211.815 398.911 211.674 399.152 211.674 399.447C211.674 399.702 211.769 399.907 211.958 400.063C212.146 400.219 212.451 400.347 212.872 400.446L214.085 400.724C214.788 400.887 215.312 401.137 215.656 401.475C216.001 401.813 216.173 402.252 216.173 402.793C216.173 403.25 216.041 403.658 215.776 404.016C215.514 404.37 215.148 404.649 214.677 404.851C214.21 405.053 213.668 405.154 213.051 405.154C212.196 405.154 211.499 404.972 210.958 404.607C210.418 404.239 210.087 403.717 209.964 403.041L211.401 402.822C211.49 403.197 211.674 403.48 211.953 403.673C212.231 403.862 212.594 403.956 213.041 403.956C213.529 403.956 213.918 403.855 214.21 403.653C214.501 403.447 214.647 403.197 214.647 402.902C214.647 402.663 214.558 402.463 214.379 402.3C214.203 402.138 213.933 402.015 213.568 401.933L212.276 401.649C211.563 401.487 211.036 401.228 210.695 400.874C210.357 400.519 210.188 400.07 210.188 399.526C210.188 399.076 210.314 398.681 210.566 398.343C210.817 398.005 211.165 397.741 211.61 397.553C212.054 397.36 212.562 397.264 213.136 397.264C213.961 397.264 214.611 397.443 215.085 397.801C215.559 398.156 215.872 398.631 216.024 399.228ZM222.645 401.833V397.364H224.137V405H222.675V403.678H222.596C222.42 404.085 222.138 404.425 221.75 404.697C221.366 404.965 220.887 405.099 220.314 405.099C219.823 405.099 219.389 404.992 219.011 404.776C218.636 404.558 218.342 404.234 218.126 403.807C217.914 403.379 217.808 402.851 217.808 402.221V397.364H219.294V402.042C219.294 402.562 219.439 402.977 219.727 403.285C220.015 403.593 220.39 403.747 220.85 403.747C221.129 403.747 221.406 403.678 221.681 403.538C221.959 403.399 222.19 403.189 222.372 402.907C222.557 402.625 222.649 402.267 222.645 401.833ZM226.134 407.864V397.364H227.586V398.602H227.71C227.796 398.442 227.921 398.259 228.083 398.05C228.245 397.841 228.471 397.659 228.759 397.503C229.047 397.344 229.429 397.264 229.903 397.264C230.519 397.264 231.069 397.42 231.553 397.732C232.037 398.043 232.416 398.492 232.692 399.079C232.97 399.665 233.109 400.371 233.109 401.197C233.109 402.022 232.972 402.73 232.697 403.32C232.421 403.906 232.044 404.359 231.563 404.677C231.082 404.992 230.534 405.149 229.917 405.149C229.453 405.149 229.074 405.071 228.779 404.915C228.487 404.76 228.259 404.577 228.093 404.369C227.927 404.16 227.8 403.974 227.71 403.812H227.621V407.864H226.134ZM227.591 401.182C227.591 401.719 227.669 402.189 227.824 402.594C227.98 402.998 228.206 403.315 228.501 403.543C228.796 403.769 229.157 403.881 229.584 403.881C230.028 403.881 230.4 403.764 230.698 403.528C230.996 403.29 231.222 402.967 231.374 402.559C231.53 402.151 231.608 401.692 231.608 401.182C231.608 400.678 231.532 400.226 231.379 399.825C231.23 399.424 231.005 399.107 230.703 398.875C230.405 398.643 230.032 398.527 229.584 398.527C229.153 398.527 228.789 398.638 228.491 398.86C228.196 399.082 227.972 399.392 227.819 399.79C227.667 400.187 227.591 400.652 227.591 401.182ZM234.775 407.864V397.364H236.226V398.602H236.351C236.437 398.442 236.561 398.259 236.724 398.05C236.886 397.841 237.111 397.659 237.4 397.503C237.688 397.344 238.069 397.264 238.543 397.264C239.16 397.264 239.71 397.42 240.194 397.732C240.678 398.043 241.057 398.492 241.332 399.079C241.611 399.665 241.75 400.371 241.75 401.197C241.75 402.022 241.612 402.73 241.337 403.32C241.062 403.906 240.684 404.359 240.204 404.677C239.723 404.992 239.175 405.149 238.558 405.149C238.094 405.149 237.715 405.071 237.42 404.915C237.128 404.76 236.899 404.577 236.733 404.369C236.568 404.16 236.44 403.974 236.351 403.812H236.261V407.864H234.775ZM236.231 401.182C236.231 401.719 236.309 402.189 236.465 402.594C236.621 402.998 236.846 403.315 237.141 403.543C237.436 403.769 237.797 403.881 238.225 403.881C238.669 403.881 239.04 403.764 239.339 403.528C239.637 403.29 239.862 402.967 240.015 402.559C240.171 402.151 240.248 401.692 240.248 401.182C240.248 400.678 240.172 400.226 240.02 399.825C239.871 399.424 239.645 399.107 239.344 398.875C239.045 398.643 238.672 398.527 238.225 398.527C237.794 398.527 237.43 398.638 237.131 398.86C236.836 399.082 236.613 399.392 236.46 399.79C236.308 400.187 236.231 400.652 236.231 401.182ZM246.632 405.154C245.916 405.154 245.291 404.99 244.758 404.662C244.224 404.334 243.81 403.875 243.515 403.285C243.22 402.695 243.072 402.005 243.072 401.217C243.072 400.424 243.22 399.732 243.515 399.138C243.81 398.545 244.224 398.085 244.758 397.756C245.291 397.428 245.916 397.264 246.632 397.264C247.348 397.264 247.973 397.428 248.506 397.756C249.04 398.085 249.454 398.545 249.749 399.138C250.044 399.732 250.192 400.424 250.192 401.217C250.192 402.005 250.044 402.695 249.749 403.285C249.454 403.875 249.04 404.334 248.506 404.662C247.973 404.99 247.348 405.154 246.632 405.154ZM246.637 403.906C247.101 403.906 247.485 403.784 247.79 403.538C248.095 403.293 248.321 402.967 248.466 402.559C248.616 402.151 248.69 401.702 248.69 401.212C248.69 400.724 248.616 400.277 248.466 399.869C248.321 399.458 248.095 399.129 247.79 398.88C247.485 398.631 247.101 398.507 246.637 398.507C246.17 398.507 245.782 398.631 245.474 398.88C245.169 399.129 244.942 399.458 244.792 399.869C244.647 400.277 244.574 400.724 244.574 401.212C244.574 401.702 244.647 402.151 244.792 402.559C244.942 402.967 245.169 403.293 245.474 403.538C245.782 403.784 246.17 403.906 246.637 403.906ZM251.851 405V397.364H253.288V398.577H253.367C253.506 398.166 253.752 397.843 254.103 397.607C254.458 397.369 254.859 397.249 255.306 397.249C255.399 397.249 255.508 397.253 255.634 397.259C255.763 397.266 255.865 397.274 255.938 397.284V398.706C255.878 398.689 255.772 398.671 255.619 398.651C255.467 398.628 255.314 398.616 255.162 398.616C254.811 398.616 254.497 398.691 254.222 398.84C253.951 398.986 253.735 399.19 253.576 399.452C253.417 399.71 253.337 400.005 253.337 400.337V405H251.851ZM261.24 397.364V398.557H257.069V397.364H261.24ZM258.187 395.534H259.674V402.758C259.674 403.046 259.717 403.263 259.803 403.409C259.889 403.552 260 403.649 260.136 403.702C260.275 403.752 260.426 403.777 260.588 403.777C260.708 403.777 260.812 403.769 260.902 403.752C260.991 403.736 261.061 403.722 261.11 403.712L261.379 404.94C261.293 404.973 261.17 405.007 261.011 405.04C260.852 405.076 260.653 405.096 260.414 405.099C260.023 405.106 259.659 405.036 259.321 404.891C258.983 404.745 258.709 404.519 258.5 404.214C258.292 403.91 258.187 403.527 258.187 403.066V395.534Z" fill="white"/>
</g>
<rect x="88.625" y="127.625" width="243.75" height="344.75" rx="11.375" stroke="#155EEF" stroke-width="1.25"/>
</g>
<g filter="url(#filter1_dd_773_7205)">
<rect x="358" y="191" width="176" height="118" rx="12" fill="white"/>
<path opacity="0.2" d="M437 237V244.5C437 245.296 436.684 246.059 436.121 246.621C435.559 247.184 434.796 247.5 434 247.5H431C430.204 247.5 429.441 247.184 428.879 246.621C428.316 246.059 428 245.296 428 244.5V234H434C434.796 234 435.559 234.316 436.121 234.879C436.684 235.441 437 236.204 437 237ZM458 234C457.204 234 456.441 234.316 455.879 234.879C455.316 235.441 455 236.204 455 237V244.5C455 245.296 455.316 246.059 455.879 246.621C456.441 247.184 457.204 247.5 458 247.5H464V234H458Z" fill="#004EEB"/>
<path d="M459.854 220.249C457.13 217.509 453.654 215.639 449.866 214.876C446.078 214.114 442.149 214.493 438.577 215.966C435.005 217.439 431.95 219.939 429.8 223.149C427.65 226.36 426.502 230.136 426.5 234V244.5C426.5 245.693 426.974 246.838 427.818 247.682C428.662 248.526 429.807 249 431 249H434C435.193 249 436.338 248.526 437.182 247.682C438.026 246.838 438.5 245.693 438.5 244.5V237C438.5 235.807 438.026 234.662 437.182 233.818C436.338 232.974 435.193 232.5 434 232.5H429.568C429.857 229.372 431.032 226.392 432.954 223.908C434.877 221.424 437.468 219.54 440.423 218.476C443.378 217.412 446.575 217.212 449.64 217.901C452.705 218.589 455.51 220.136 457.726 222.362C460.435 225.085 462.102 228.673 462.434 232.5H458C456.807 232.5 455.662 232.974 454.818 233.818C453.974 234.662 453.5 235.807 453.5 237V244.5C453.5 245.693 453.974 246.838 454.818 247.682C455.662 248.526 456.807 249 458 249H462.5C462.5 250.193 462.026 251.338 461.182 252.182C460.338 253.026 459.193 253.5 458 253.5H447.5C447.102 253.5 446.721 253.658 446.439 253.939C446.158 254.221 446 254.602 446 255C446 255.398 446.158 255.779 446.439 256.061C446.721 256.342 447.102 256.5 447.5 256.5H458C459.989 256.5 461.897 255.71 463.303 254.303C464.71 252.897 465.5 250.989 465.5 249V234C465.51 231.449 465.016 228.922 464.047 226.562C463.079 224.202 461.654 222.057 459.854 220.249ZM434 235.5C434.398 235.5 434.779 235.658 435.061 235.939C435.342 236.221 435.5 236.602 435.5 237V244.5C435.5 244.898 435.342 245.279 435.061 245.561C434.779 245.842 434.398 246 434 246H431C430.602 246 430.221 245.842 429.939 245.561C429.658 245.279 429.5 244.898 429.5 244.5V235.5H434ZM458 246C457.602 246 457.221 245.842 456.939 245.561C456.658 245.279 456.5 244.898 456.5 244.5V237C456.5 236.602 456.658 236.221 456.939 235.939C457.221 235.658 457.602 235.5 458 235.5H462.5V246H458Z" fill="#004EEB"/>
<path d="M379.716 271.897V269.909H390.161V271.897H386.114V283H383.762V271.897H379.716ZM393.561 283.198C392.939 283.198 392.379 283.087 391.88 282.866C391.386 282.64 390.994 282.308 390.704 281.869C390.418 281.43 390.276 280.888 390.276 280.245C390.276 279.691 390.378 279.233 390.582 278.871C390.787 278.509 391.066 278.219 391.42 278.001C391.773 277.784 392.172 277.62 392.615 277.509C393.063 277.394 393.525 277.311 394.002 277.26C394.577 277.2 395.044 277.147 395.402 277.1C395.76 277.049 396.02 276.972 396.182 276.87C396.348 276.763 396.431 276.599 396.431 276.378V276.339C396.431 275.858 396.288 275.485 396.003 275.221C395.717 274.957 395.306 274.825 394.769 274.825C394.202 274.825 393.753 274.948 393.42 275.195C393.092 275.442 392.871 275.734 392.756 276.071L390.595 275.764C390.766 275.168 391.047 274.669 391.439 274.268C391.831 273.864 392.31 273.561 392.877 273.361C393.444 273.156 394.07 273.054 394.756 273.054C395.229 273.054 395.7 273.109 396.169 273.22C396.638 273.331 397.066 273.514 397.454 273.77C397.842 274.021 398.153 274.364 398.387 274.799C398.626 275.234 398.745 275.777 398.745 276.429V283H396.521V281.651H396.444C396.303 281.924 396.105 282.18 395.849 282.418C395.598 282.653 395.281 282.842 394.897 282.987C394.518 283.128 394.072 283.198 393.561 283.198ZM394.162 281.498C394.626 281.498 395.029 281.406 395.37 281.223C395.711 281.036 395.973 280.788 396.156 280.482C396.344 280.175 396.438 279.84 396.438 279.478V278.321C396.365 278.381 396.241 278.436 396.067 278.487C395.896 278.538 395.705 278.583 395.491 278.621C395.278 278.66 395.067 278.694 394.859 278.724C394.65 278.754 394.469 278.779 394.315 278.8C393.97 278.847 393.661 278.924 393.388 279.031C393.116 279.137 392.901 279.286 392.743 279.478C392.585 279.665 392.506 279.908 392.506 280.207C392.506 280.633 392.662 280.955 392.973 281.172C393.284 281.389 393.68 281.498 394.162 281.498ZM403.386 269.909V283H401.072V269.909H403.386ZM407.874 279.919L407.868 277.126H408.239L411.767 273.182H414.471L410.131 278.014H409.651L407.874 279.919ZM405.765 283V269.909H408.079V283H405.765ZM411.927 283L408.731 278.532L410.291 276.902L414.695 283H411.927ZM425.381 273.182V274.972H419.737V273.182H425.381ZM421.13 270.83H423.444V280.047C423.444 280.358 423.491 280.597 423.585 280.763C423.683 280.925 423.81 281.036 423.968 281.095C424.126 281.155 424.3 281.185 424.492 281.185C424.637 281.185 424.769 281.174 424.888 281.153C425.012 281.131 425.106 281.112 425.17 281.095L425.56 282.904C425.436 282.947 425.259 282.994 425.029 283.045C424.803 283.096 424.526 283.126 424.198 283.134C423.619 283.151 423.097 283.064 422.632 282.872C422.168 282.676 421.799 282.374 421.526 281.964C421.258 281.555 421.126 281.044 421.13 280.43V270.83ZM431.493 283.192C430.534 283.192 429.703 282.981 429 282.559C428.297 282.137 427.752 281.547 427.364 280.788C426.98 280.03 426.789 279.143 426.789 278.129C426.789 277.115 426.98 276.227 427.364 275.464C427.752 274.701 428.297 274.109 429 273.687C429.703 273.265 430.534 273.054 431.493 273.054C432.452 273.054 433.283 273.265 433.986 273.687C434.689 274.109 435.232 274.701 435.616 275.464C436.004 276.227 436.198 277.115 436.198 278.129C436.198 279.143 436.004 280.03 435.616 280.788C435.232 281.547 434.689 282.137 433.986 282.559C433.283 282.981 432.452 283.192 431.493 283.192ZM431.506 281.338C432.026 281.338 432.46 281.195 432.81 280.91C433.159 280.62 433.419 280.232 433.59 279.746C433.764 279.261 433.852 278.719 433.852 278.123C433.852 277.522 433.764 276.979 433.59 276.493C433.419 276.003 433.159 275.613 432.81 275.323C432.46 275.033 432.026 274.888 431.506 274.888C430.973 274.888 430.53 275.033 430.176 275.323C429.827 275.613 429.565 276.003 429.39 276.493C429.22 276.979 429.134 277.522 429.134 278.123C429.134 278.719 429.22 279.261 429.39 279.746C429.565 280.232 429.827 280.62 430.176 280.91C430.53 281.195 430.973 281.338 431.506 281.338ZM449.843 273.508C449.783 272.95 449.532 272.515 449.089 272.204C448.65 271.893 448.079 271.737 447.376 271.737C446.881 271.737 446.457 271.812 446.104 271.961C445.75 272.11 445.479 272.312 445.292 272.568C445.104 272.824 445.009 273.116 445.004 273.444C445.004 273.717 445.066 273.953 445.19 274.153C445.317 274.354 445.49 274.524 445.707 274.665C445.925 274.801 446.165 274.916 446.43 275.01C446.694 275.104 446.96 275.183 447.229 275.246L448.456 275.553C448.95 275.668 449.425 275.824 449.881 276.02C450.342 276.216 450.753 276.463 451.115 276.761C451.482 277.06 451.771 277.42 451.984 277.842C452.197 278.263 452.304 278.758 452.304 279.325C452.304 280.092 452.108 280.767 451.716 281.351C451.324 281.93 450.757 282.384 450.016 282.712C449.278 283.036 448.386 283.198 447.337 283.198C446.319 283.198 445.435 283.04 444.685 282.725C443.939 282.41 443.355 281.95 442.933 281.344C442.516 280.739 442.29 280.002 442.256 279.133H444.589C444.623 279.589 444.763 279.968 445.011 280.271C445.258 280.573 445.58 280.799 445.976 280.948C446.376 281.097 446.824 281.172 447.318 281.172C447.834 281.172 448.286 281.095 448.673 280.942C449.065 280.784 449.372 280.567 449.594 280.29C449.815 280.009 449.928 279.68 449.933 279.305C449.928 278.964 449.828 278.683 449.632 278.462C449.436 278.236 449.161 278.048 448.808 277.899C448.458 277.746 448.049 277.609 447.58 277.49L446.091 277.107C445.013 276.83 444.161 276.41 443.534 275.847C442.912 275.281 442.601 274.528 442.601 273.591C442.601 272.82 442.81 272.144 443.227 271.565C443.649 270.985 444.222 270.536 444.947 270.216C445.671 269.892 446.491 269.73 447.408 269.73C448.337 269.73 449.151 269.892 449.849 270.216C450.553 270.536 451.104 270.981 451.505 271.552C451.906 272.119 452.112 272.771 452.125 273.508H449.843ZM460.574 278.871V273.182H462.888V283H460.644V281.255H460.542C460.32 281.805 459.956 282.254 459.449 282.604C458.946 282.953 458.326 283.128 457.589 283.128C456.945 283.128 456.376 282.985 455.882 282.7C455.392 282.41 455.008 281.99 454.731 281.44C454.454 280.886 454.316 280.217 454.316 279.433V273.182H456.63V279.075C456.63 279.697 456.8 280.192 457.141 280.558C457.482 280.925 457.93 281.108 458.483 281.108C458.824 281.108 459.155 281.025 459.474 280.859C459.794 280.692 460.056 280.445 460.26 280.117C460.469 279.785 460.574 279.369 460.574 278.871ZM465.267 286.682V273.182H467.543V274.805H467.677C467.796 274.567 467.964 274.313 468.182 274.045C468.399 273.772 468.693 273.54 469.064 273.348C469.435 273.152 469.908 273.054 470.483 273.054C471.241 273.054 471.925 273.248 472.535 273.636C473.148 274.019 473.634 274.588 473.992 275.342C474.354 276.092 474.536 277.013 474.536 278.104C474.536 279.182 474.359 280.098 474.005 280.852C473.651 281.607 473.17 282.182 472.56 282.578C471.951 282.974 471.261 283.173 470.489 283.173C469.927 283.173 469.46 283.079 469.089 282.891C468.719 282.704 468.42 282.478 468.195 282.214C467.973 281.945 467.8 281.692 467.677 281.453H467.581V286.682H465.267ZM467.536 278.091C467.536 278.726 467.626 279.282 467.805 279.759C467.988 280.237 468.25 280.609 468.591 280.878C468.936 281.142 469.354 281.274 469.844 281.274C470.355 281.274 470.783 281.138 471.129 280.865C471.474 280.588 471.734 280.211 471.908 279.734C472.087 279.252 472.177 278.705 472.177 278.091C472.177 277.482 472.089 276.94 471.915 276.467C471.74 275.994 471.48 275.624 471.135 275.355C470.79 275.087 470.359 274.952 469.844 274.952C469.349 274.952 468.93 275.082 468.585 275.342C468.239 275.602 467.977 275.967 467.798 276.435C467.624 276.904 467.536 277.456 467.536 278.091ZM476.517 286.682V273.182H478.793V274.805H478.927C479.046 274.567 479.214 274.313 479.432 274.045C479.649 273.772 479.943 273.54 480.314 273.348C480.685 273.152 481.158 273.054 481.733 273.054C482.491 273.054 483.175 273.248 483.785 273.636C484.398 274.019 484.884 274.588 485.242 275.342C485.604 276.092 485.786 277.013 485.786 278.104C485.786 279.182 485.609 280.098 485.255 280.852C484.901 281.607 484.42 282.182 483.81 282.578C483.201 282.974 482.511 283.173 481.739 283.173C481.177 283.173 480.71 283.079 480.339 282.891C479.969 282.704 479.67 282.478 479.445 282.214C479.223 281.945 479.05 281.692 478.927 281.453H478.831V286.682H476.517ZM478.786 278.091C478.786 278.726 478.876 279.282 479.055 279.759C479.238 280.237 479.5 280.609 479.841 280.878C480.186 281.142 480.604 281.274 481.094 281.274C481.605 281.274 482.033 281.138 482.379 280.865C482.724 280.588 482.984 280.211 483.158 279.734C483.337 279.252 483.427 278.705 483.427 278.091C483.427 277.482 483.339 276.94 483.165 276.467C482.99 275.994 482.73 275.624 482.385 275.355C482.04 275.087 481.609 274.952 481.094 274.952C480.599 274.952 480.18 275.082 479.835 275.342C479.489 275.602 479.227 275.967 479.048 276.435C478.874 276.904 478.786 277.456 478.786 278.091ZM492.05 283.192C491.091 283.192 490.26 282.981 489.557 282.559C488.854 282.137 488.308 281.547 487.92 280.788C487.537 280.03 487.345 279.143 487.345 278.129C487.345 277.115 487.537 276.227 487.92 275.464C488.308 274.701 488.854 274.109 489.557 273.687C490.26 273.265 491.091 273.054 492.05 273.054C493.009 273.054 493.839 273.265 494.543 273.687C495.246 274.109 495.789 274.701 496.173 275.464C496.56 276.227 496.754 277.115 496.754 278.129C496.754 279.143 496.56 280.03 496.173 280.788C495.789 281.547 495.246 282.137 494.543 282.559C493.839 282.981 493.009 283.192 492.05 283.192ZM492.062 281.338C492.582 281.338 493.017 281.195 493.366 280.91C493.716 280.62 493.976 280.232 494.146 279.746C494.321 279.261 494.408 278.719 494.408 278.123C494.408 277.522 494.321 276.979 494.146 276.493C493.976 276.003 493.716 275.613 493.366 275.323C493.017 275.033 492.582 274.888 492.062 274.888C491.53 274.888 491.087 275.033 490.733 275.323C490.384 275.613 490.121 276.003 489.947 276.493C489.776 276.979 489.691 277.522 489.691 278.123C489.691 278.719 489.776 279.261 489.947 279.746C490.121 280.232 490.384 280.62 490.733 280.91C491.087 281.195 491.53 281.338 492.062 281.338ZM498.718 283V273.182H500.962V274.818H501.064C501.243 274.251 501.55 273.815 501.985 273.508C502.423 273.197 502.924 273.041 503.487 273.041C503.615 273.041 503.757 273.048 503.915 273.06C504.077 273.069 504.211 273.084 504.318 273.105V275.234C504.22 275.2 504.064 275.17 503.851 275.144C503.642 275.114 503.44 275.099 503.244 275.099C502.822 275.099 502.443 275.191 502.106 275.374C501.774 275.553 501.512 275.803 501.32 276.122C501.128 276.442 501.032 276.81 501.032 277.228V283H498.718ZM511.285 273.182V274.972H505.641V273.182H511.285ZM507.034 270.83H509.348V280.047C509.348 280.358 509.395 280.597 509.489 280.763C509.587 280.925 509.715 281.036 509.872 281.095C510.03 281.155 510.205 281.185 510.396 281.185C510.541 281.185 510.673 281.174 510.793 281.153C510.916 281.131 511.01 281.112 511.074 281.095L511.464 282.904C511.34 282.947 511.164 282.994 510.933 283.045C510.708 283.096 510.431 283.126 510.102 283.134C509.523 283.151 509.001 283.064 508.536 282.872C508.072 282.676 507.703 282.374 507.431 281.964C507.162 281.555 507.03 281.044 507.034 280.43V270.83Z" fill="#101828"/>
<rect x="358.5" y="191.5" width="175" height="117" rx="11.5" stroke="#155EEF"/>
</g>
<defs>
<filter id="filter0_dd_773_7205" x="82" y="125" width="257" height="358" filterUnits="userSpaceOnUse" color-interpolation-filters="sRGB">
<feFlood flood-opacity="0" result="BackgroundImageFix"/>
<feColorMatrix in="SourceAlpha" type="matrix" values="0 0 0 0 0 0 0 0 0 0 0 0 0 0 0 0 0 0 127 0" result="hardAlpha"/>
<feMorphology radius="2" operator="erode" in="SourceAlpha" result="effect1_dropShadow_773_7205"/>
<feOffset dy="2"/>
<feGaussianBlur stdDeviation="2"/>
<feColorMatrix type="matrix" values="0 0 0 0 0.0627451 0 0 0 0 0.0941176 0 0 0 0 0.156863 0 0 0 0.06 0"/>
<feBlend mode="normal" in2="BackgroundImageFix" result="effect1_dropShadow_773_7205"/>
<feColorMatrix in="SourceAlpha" type="matrix" values="0 0 0 0 0 0 0 0 0 0 0 0 0 0 0 0 0 0 127 0" result="hardAlpha"/>
<feMorphology radius="2" operator="erode" in="SourceAlpha" result="effect2_dropShadow_773_7205"/>
<feOffset dy="4"/>
<feGaussianBlur stdDeviation="4"/>
<feColorMatrix type="matrix" values="0 0 0 0 0.0627451 0 0 0 0 0.0941176 0 0 0 0 0.156863 0 0 0 0.1 0"/>
<feBlend mode="normal" in2="effect1_dropShadow_773_7205" result="effect2_dropShadow_773_7205"/>
<feBlend mode="normal" in="SourceGraphic" in2="effect2_dropShadow_773_7205" result="shape"/>
</filter>
<filter id="filter1_dd_773_7205" x="352" y="189" width="188" height="130" filterUnits="userSpaceOnUse" color-interpolation-filters="sRGB">
<feFlood flood-opacity="0" result="BackgroundImageFix"/>
<feColorMatrix in="SourceAlpha" type="matrix" values="0 0 0 0 0 0 0 0 0 0 0 0 0 0 0 0 0 0 127 0" result="hardAlpha"/>
<feMorphology radius="2" operator="erode" in="SourceAlpha" result="effect1_dropShadow_773_7205"/>
<feOffset dy="2"/>
<feGaussianBlur stdDeviation="2"/>
<feColorMatrix type="matrix" values="0 0 0 0 0.0627451 0 0 0 0 0.0941176 0 0 0 0 0.156863 0 0 0 0.06 0"/>
<feBlend mode="normal" in2="BackgroundImageFix" result="effect1_dropShadow_773_7205"/>
<feColorMatrix in="SourceAlpha" type="matrix" values="0 0 0 0 0 0 0 0 0 0 0 0 0 0 0 0 0 0 127 0" result="hardAlpha"/>
<feMorphology radius="2" operator="erode" in="SourceAlpha" result="effect2_dropShadow_773_7205"/>
<feOffset dy="4"/>
<feGaussianBlur stdDeviation="4"/>
<feColorMatrix type="matrix" values="0 0 0 0 0.0627451 0 0 0 0 0.0941176 0 0 0 0 0.156863 0 0 0 0.1 0"/>
<feBlend mode="normal" in2="effect1_dropShadow_773_7205" result="effect2_dropShadow_773_7205"/>
<feBlend mode="normal" in="SourceGraphic" in2="effect2_dropShadow_773_7205" result="shape"/>
</filter>
<clipPath id="clip0_773_7205">
<rect x="88" y="127" width="245" height="346" rx="12" fill="white"/>
</clipPath>
<clipPath id="clip1_773_7205">
<path d="M88 433H333V473H88V433Z" fill="white"/>
</clipPath>
</defs>
</svg>
