<svg width="600" height="600" viewBox="0 0 600 600" fill="none" xmlns="http://www.w3.org/2000/svg">
<rect x="43.5" y="154.5" width="513" height="291" rx="24.5" fill="#EFF4FF"/>
<rect x="43.5" y="154.5" width="513" height="291" rx="24.5" stroke="#B2CCFF"/>
<g filter="url(#filter0_dd_773_7233)">
<rect x="280" y="108" width="248" height="64" rx="12" fill="white"/>
<rect x="295" y="120" width="40" height="40" rx="4" fill="#EFF4FF"/>
<rect x="345" y="120" width="162" height="6" rx="2" fill="#EAECF0"/>
<rect x="345" y="135" width="162" height="6" rx="2" fill="#EAECF0"/>
<rect x="345" y="150" width="103" height="6" rx="2" fill="#EAECF0"/>
<rect x="280.5" y="108.5" width="247" height="63" rx="11.5" stroke="#B2CCFF"/>
</g>
<g filter="url(#filter1_dd_773_7233)">
<rect x="280" y="188" width="248" height="64" rx="12" fill="white"/>
<rect x="295" y="200" width="40" height="40" rx="4" fill="#EFF4FF"/>
<rect x="345" y="200" width="162" height="6" rx="2" fill="#EAECF0"/>
<rect x="345" y="215" width="162" height="6" rx="2" fill="#EAECF0"/>
<rect x="345" y="230" width="103" height="6" rx="2" fill="#EAECF0"/>
<rect x="280.5" y="188.5" width="247" height="63" rx="11.5" stroke="#B2CCFF"/>
</g>
<g filter="url(#filter2_dd_773_7233)">
<rect x="280" y="268" width="248" height="64" rx="12" fill="white"/>
<rect x="295" y="280" width="40" height="40" rx="4" fill="#EFF4FF"/>
<rect x="345" y="280" width="162" height="6" rx="2" fill="#EAECF0"/>
<rect x="345" y="295" width="162" height="6" rx="2" fill="#EAECF0"/>
<rect x="345" y="310" width="103" height="6" rx="2" fill="#EAECF0"/>
<rect x="280.5" y="268.5" width="247" height="63" rx="11.5" stroke="#B2CCFF"/>
</g>
<g filter="url(#filter3_dd_773_7233)">
<rect x="280" y="348" width="248" height="64" rx="12" fill="white"/>
<rect x="295" y="360" width="40" height="40" rx="4" fill="#EFF4FF"/>
<rect x="345" y="360" width="162" height="6" rx="2" fill="#EAECF0"/>
<rect x="345" y="375" width="162" height="6" rx="2" fill="#EAECF0"/>
<rect x="345" y="390" width="103" height="6" rx="2" fill="#EAECF0"/>
<rect x="280.5" y="348.5" width="247" height="63" rx="11.5" stroke="#B2CCFF"/>
</g>
<g filter="url(#filter4_dd_773_7233)">
<rect x="280" y="428" width="248" height="64" rx="12" fill="white"/>
<rect x="295" y="440" width="40" height="40" rx="4" fill="#EFF4FF"/>
<rect x="345" y="440" width="162" height="6" rx="2" fill="#EAECF0"/>
<rect x="345" y="455" width="162" height="6" rx="2" fill="#EAECF0"/>
<rect x="345" y="470" width="103" height="6" rx="2" fill="#EAECF0"/>
<rect x="280.5" y="428.5" width="247" height="63" rx="11.5" stroke="#B2CCFF"/>
</g>
<g filter="url(#filter5_dd_773_7233)">
<rect x="80" y="189" width="176" height="118" rx="12" fill="white"/>
<path opacity="0.2" d="M184.5 218.5L166.5 235L148.5 218.5H184.5Z" fill="#004EEB"/>
<path d="M184.5 217H148.5C148.102 217 147.721 217.158 147.439 217.439C147.158 217.721 147 218.102 147 218.5V244C147 244.796 147.316 245.559 147.879 246.121C148.441 246.684 149.204 247 150 247H183C183.796 247 184.559 246.684 185.121 246.121C185.684 245.559 186 244.796 186 244V218.5C186 218.102 185.842 217.721 185.561 217.439C185.279 217.158 184.898 217 184.5 217ZM180.643 220L166.5 232.966L152.357 220H180.643ZM183 244H150V221.911L165.486 236.106C165.762 236.36 166.124 236.501 166.5 236.501C166.876 236.501 167.238 236.36 167.514 236.106L183 221.911V244Z" fill="#004EEB"/>
<path d="M100.406 271.508C100.346 270.95 100.094 270.515 99.6513 270.204C99.2124 269.893 98.6413 269.737 97.9382 269.737C97.4439 269.737 97.0199 269.812 96.6662 269.961C96.3125 270.11 96.0419 270.312 95.8544 270.568C95.6669 270.824 95.571 271.116 95.5668 271.444C95.5668 271.717 95.6286 271.953 95.7521 272.153C95.88 272.354 96.0526 272.524 96.2699 272.665C96.4872 272.801 96.728 272.916 96.9922 273.01C97.2564 273.104 97.5227 273.183 97.7912 273.246L99.0185 273.553C99.5128 273.668 99.9879 273.824 100.444 274.02C100.904 274.216 101.315 274.463 101.678 274.761C102.044 275.06 102.334 275.42 102.547 275.842C102.76 276.263 102.866 276.758 102.866 277.325C102.866 278.092 102.67 278.767 102.278 279.351C101.886 279.93 101.32 280.384 100.578 280.712C99.8409 281.036 98.9482 281.198 97.8999 281.198C96.8814 281.198 95.9972 281.04 95.2472 280.725C94.5014 280.41 93.9176 279.95 93.4957 279.344C93.0781 278.739 92.8523 278.002 92.8182 277.133H95.1513C95.1854 277.589 95.326 277.968 95.5732 278.271C95.8203 278.573 96.142 278.799 96.5384 278.948C96.9389 279.097 97.3864 279.172 97.8807 279.172C98.3963 279.172 98.848 279.095 99.2358 278.942C99.6278 278.784 99.9347 278.567 100.156 278.29C100.378 278.009 100.491 277.68 100.495 277.305C100.491 276.964 100.391 276.683 100.195 276.462C99.9986 276.236 99.7237 276.048 99.37 275.899C99.0206 275.746 98.6115 275.609 98.1428 275.49L96.6534 275.107C95.5753 274.83 94.723 274.41 94.0966 273.847C93.4744 273.281 93.1634 272.528 93.1634 271.591C93.1634 270.82 93.3722 270.144 93.7898 269.565C94.2116 268.985 94.7848 268.536 95.5092 268.216C96.2337 267.892 97.054 267.73 97.9702 267.73C98.8991 267.73 99.7131 267.892 100.412 268.216C101.115 268.536 101.667 268.981 102.067 269.552C102.468 270.119 102.675 270.771 102.688 271.508H100.406ZM104.878 281V271.182H107.192V281H104.878ZM106.042 269.788C105.675 269.788 105.36 269.667 105.096 269.424C104.831 269.177 104.699 268.881 104.699 268.536C104.699 268.186 104.831 267.89 105.096 267.647C105.36 267.4 105.675 267.276 106.042 267.276C106.412 267.276 106.728 267.4 106.988 267.647C107.252 267.89 107.384 268.186 107.384 268.536C107.384 268.881 107.252 269.177 106.988 269.424C106.728 269.667 106.412 269.788 106.042 269.788ZM114.474 271.182V272.972H108.83V271.182H114.474ZM110.224 268.83H112.538V278.047C112.538 278.358 112.585 278.597 112.678 278.763C112.776 278.925 112.904 279.036 113.062 279.095C113.219 279.155 113.394 279.185 113.586 279.185C113.731 279.185 113.863 279.174 113.982 279.153C114.106 279.131 114.2 279.112 114.263 279.095L114.653 280.904C114.53 280.947 114.353 280.994 114.123 281.045C113.897 281.096 113.62 281.126 113.292 281.134C112.712 281.151 112.19 281.064 111.726 280.872C111.261 280.676 110.893 280.374 110.62 279.964C110.352 279.555 110.219 279.044 110.224 278.43V268.83ZM120.651 281.192C119.666 281.192 118.816 280.987 118.1 280.578C117.389 280.165 116.841 279.581 116.458 278.827C116.074 278.068 115.882 277.175 115.882 276.148C115.882 275.138 116.074 274.252 116.458 273.489C116.845 272.722 117.387 272.126 118.081 271.7C118.776 271.269 119.592 271.054 120.529 271.054C121.134 271.054 121.705 271.152 122.242 271.348C122.784 271.54 123.261 271.838 123.674 272.243C124.092 272.648 124.42 273.163 124.659 273.79C124.897 274.412 125.017 275.153 125.017 276.014V276.724H116.969V275.164H122.798C122.794 274.721 122.698 274.327 122.511 273.982C122.323 273.632 122.061 273.357 121.725 273.157C121.392 272.957 121.004 272.857 120.561 272.857C120.088 272.857 119.673 272.972 119.315 273.202C118.957 273.428 118.678 273.726 118.477 274.097C118.281 274.463 118.181 274.866 118.177 275.305V276.666C118.177 277.237 118.281 277.727 118.49 278.136C118.699 278.541 118.991 278.852 119.366 279.07C119.741 279.283 120.18 279.389 120.683 279.389C121.019 279.389 121.324 279.342 121.597 279.249C121.869 279.151 122.106 279.008 122.306 278.82C122.507 278.633 122.658 278.401 122.76 278.124L124.921 278.366C124.784 278.937 124.524 279.436 124.141 279.862C123.762 280.284 123.276 280.612 122.683 280.847C122.091 281.077 121.414 281.192 120.651 281.192ZM135.846 272.089C135.74 271.744 135.593 271.435 135.405 271.163C135.222 270.886 135 270.649 134.74 270.453C134.485 270.257 134.191 270.11 133.858 270.012C133.526 269.91 133.164 269.859 132.772 269.859C132.069 269.859 131.442 270.036 130.892 270.389C130.343 270.743 129.91 271.263 129.595 271.949C129.284 272.631 129.128 273.462 129.128 274.442C129.128 275.43 129.284 276.268 129.595 276.954C129.906 277.64 130.338 278.162 130.892 278.52C131.446 278.874 132.09 279.05 132.823 279.05C133.488 279.05 134.063 278.923 134.549 278.667C135.039 278.411 135.416 278.049 135.68 277.58C135.944 277.107 136.076 276.553 136.076 275.918L136.613 276.001H133.059V274.148H138.371V275.72C138.371 276.841 138.132 277.81 137.655 278.629C137.178 279.447 136.522 280.077 135.686 280.521C134.851 280.96 133.892 281.179 132.81 281.179C131.604 281.179 130.545 280.908 129.633 280.367C128.725 279.822 128.016 279.048 127.505 278.047C126.998 277.041 126.744 275.848 126.744 274.467C126.744 273.411 126.893 272.467 127.191 271.636C127.494 270.805 127.916 270.099 128.457 269.52C128.998 268.936 129.633 268.493 130.362 268.19C131.091 267.884 131.883 267.73 132.74 267.73C133.464 267.73 134.14 267.837 134.766 268.05C135.392 268.259 135.949 268.557 136.434 268.945C136.924 269.332 137.327 269.793 137.642 270.325C137.958 270.858 138.164 271.446 138.262 272.089H135.846ZM140.664 281V267.909H145.573C146.579 267.909 147.423 268.097 148.105 268.472C148.791 268.847 149.308 269.362 149.658 270.018C150.012 270.67 150.188 271.412 150.188 272.243C150.188 273.082 150.012 273.828 149.658 274.48C149.304 275.132 148.782 275.646 148.092 276.021C147.401 276.391 146.551 276.577 145.541 276.577H142.288V274.627H145.222C145.81 274.627 146.291 274.525 146.666 274.32C147.041 274.116 147.318 273.835 147.497 273.477C147.681 273.119 147.772 272.707 147.772 272.243C147.772 271.778 147.681 271.369 147.497 271.016C147.318 270.662 147.039 270.387 146.66 270.191C146.285 269.991 145.801 269.891 145.209 269.891H143.036V281H140.664ZM151.673 269.897V267.909H162.118V269.897H158.071V281H155.719V269.897H151.673ZM176.848 267.909H179.219V276.462C179.219 277.399 178.998 278.224 178.555 278.935C178.116 279.647 177.498 280.203 176.701 280.604C175.904 281 174.973 281.198 173.908 281.198C172.838 281.198 171.905 281 171.108 280.604C170.311 280.203 169.693 279.647 169.254 278.935C168.815 278.224 168.596 277.399 168.596 276.462V267.909H170.967V276.263C170.967 276.809 171.087 277.295 171.325 277.721C171.568 278.147 171.909 278.482 172.348 278.724C172.787 278.963 173.307 279.082 173.908 279.082C174.509 279.082 175.028 278.963 175.467 278.724C175.911 278.482 176.251 278.147 176.49 277.721C176.729 277.295 176.848 276.809 176.848 276.263V267.909ZM181.695 284.682V271.182H183.97V272.805H184.105C184.224 272.567 184.392 272.313 184.61 272.045C184.827 271.772 185.121 271.54 185.492 271.348C185.862 271.152 186.335 271.054 186.911 271.054C187.669 271.054 188.353 271.248 188.963 271.636C189.576 272.019 190.062 272.588 190.42 273.342C190.782 274.092 190.963 275.013 190.963 276.104C190.963 277.182 190.786 278.098 190.433 278.852C190.079 279.607 189.597 280.182 188.988 280.578C188.379 280.974 187.688 281.173 186.917 281.173C186.355 281.173 185.888 281.079 185.517 280.891C185.146 280.704 184.848 280.478 184.622 280.214C184.401 279.945 184.228 279.692 184.105 279.453H184.009V284.682H181.695ZM183.964 276.091C183.964 276.726 184.053 277.282 184.232 277.759C184.416 278.237 184.678 278.609 185.019 278.878C185.364 279.142 185.781 279.274 186.271 279.274C186.783 279.274 187.211 279.138 187.556 278.865C187.901 278.588 188.161 278.211 188.336 277.734C188.515 277.252 188.605 276.705 188.605 276.091C188.605 275.482 188.517 274.94 188.343 274.467C188.168 273.994 187.908 273.624 187.563 273.355C187.218 273.087 186.787 272.952 186.271 272.952C185.777 272.952 185.357 273.082 185.012 273.342C184.667 273.602 184.405 273.967 184.226 274.435C184.051 274.904 183.964 275.456 183.964 276.091ZM196.588 281.173C195.817 281.173 195.127 280.974 194.517 280.578C193.908 280.182 193.426 279.607 193.073 278.852C192.719 278.098 192.542 277.182 192.542 276.104C192.542 275.013 192.721 274.092 193.079 273.342C193.441 272.588 193.929 272.019 194.543 271.636C195.156 271.248 195.84 271.054 196.595 271.054C197.17 271.054 197.643 271.152 198.014 271.348C198.384 271.54 198.678 271.772 198.896 272.045C199.113 272.313 199.281 272.567 199.401 272.805H199.497V267.909H201.817V281H199.541V279.453H199.401C199.281 279.692 199.109 279.945 198.883 280.214C198.657 280.478 198.359 280.704 197.988 280.891C197.617 281.079 197.151 281.173 196.588 281.173ZM197.234 279.274C197.724 279.274 198.142 279.142 198.487 278.878C198.832 278.609 199.094 278.237 199.273 277.759C199.452 277.282 199.541 276.726 199.541 276.091C199.541 275.456 199.452 274.904 199.273 274.435C199.098 273.967 198.838 273.602 198.493 273.342C198.152 273.082 197.732 272.952 197.234 272.952C196.718 272.952 196.288 273.087 195.943 273.355C195.597 273.624 195.338 273.994 195.163 274.467C194.988 274.94 194.901 275.482 194.901 276.091C194.901 276.705 194.988 277.252 195.163 277.734C195.342 278.211 195.604 278.588 195.949 278.865C196.298 279.138 196.727 279.274 197.234 279.274ZM207.108 281.198C206.486 281.198 205.925 281.087 205.427 280.866C204.933 280.64 204.54 280.308 204.251 279.869C203.965 279.43 203.822 278.888 203.822 278.245C203.822 277.691 203.925 277.233 204.129 276.871C204.334 276.509 204.613 276.219 204.967 276.001C205.32 275.784 205.719 275.62 206.162 275.509C206.609 275.394 207.072 275.311 207.549 275.26C208.124 275.2 208.591 275.147 208.949 275.1C209.307 275.049 209.567 274.972 209.729 274.87C209.895 274.763 209.978 274.599 209.978 274.378V274.339C209.978 273.858 209.835 273.485 209.55 273.221C209.264 272.957 208.853 272.825 208.316 272.825C207.749 272.825 207.3 272.948 206.967 273.195C206.639 273.442 206.418 273.734 206.303 274.071L204.142 273.764C204.313 273.168 204.594 272.669 204.986 272.268C205.378 271.864 205.857 271.561 206.424 271.361C206.991 271.156 207.617 271.054 208.303 271.054C208.776 271.054 209.247 271.109 209.716 271.22C210.185 271.331 210.613 271.514 211.001 271.77C211.388 272.021 211.7 272.364 211.934 272.799C212.173 273.234 212.292 273.777 212.292 274.429V281H210.067V279.651H209.991C209.85 279.924 209.652 280.18 209.396 280.418C209.145 280.653 208.827 280.842 208.444 280.987C208.065 281.128 207.619 281.198 207.108 281.198ZM207.709 279.498C208.173 279.498 208.576 279.406 208.917 279.223C209.258 279.036 209.52 278.788 209.703 278.482C209.891 278.175 209.984 277.84 209.984 277.478V276.321C209.912 276.381 209.788 276.436 209.614 276.487C209.443 276.538 209.251 276.583 209.038 276.621C208.825 276.66 208.614 276.694 208.406 276.724C208.197 276.754 208.016 276.779 207.862 276.8C207.517 276.847 207.208 276.924 206.935 277.031C206.663 277.137 206.447 277.286 206.29 277.478C206.132 277.665 206.053 277.908 206.053 278.207C206.053 278.633 206.209 278.955 206.52 279.172C206.831 279.389 207.227 279.498 207.709 279.498ZM219.521 271.182V272.972H213.877V271.182H219.521ZM215.271 268.83H217.585V278.047C217.585 278.358 217.631 278.597 217.725 278.763C217.823 278.925 217.951 279.036 218.109 279.095C218.266 279.155 218.441 279.185 218.633 279.185C218.778 279.185 218.91 279.174 219.029 279.153C219.153 279.131 219.246 279.112 219.31 279.095L219.7 280.904C219.577 280.947 219.4 280.994 219.17 281.045C218.944 281.096 218.667 281.126 218.339 281.134C217.759 281.151 217.237 281.064 216.773 280.872C216.308 280.676 215.94 280.374 215.667 279.964C215.398 279.555 215.266 279.044 215.271 278.43V268.83ZM225.698 281.192C224.713 281.192 223.863 280.987 223.147 280.578C222.436 280.165 221.888 279.581 221.504 278.827C221.121 278.068 220.929 277.175 220.929 276.148C220.929 275.138 221.121 274.252 221.504 273.489C221.892 272.722 222.433 272.126 223.128 271.7C223.823 271.269 224.639 271.054 225.576 271.054C226.181 271.054 226.752 271.152 227.289 271.348C227.83 271.54 228.308 271.838 228.721 272.243C229.139 272.648 229.467 273.163 229.705 273.79C229.944 274.412 230.063 275.153 230.063 276.014V276.724H222.016V275.164H227.845C227.841 274.721 227.745 274.327 227.558 273.982C227.37 273.632 227.108 273.357 226.771 273.157C226.439 272.957 226.051 272.857 225.608 272.857C225.135 272.857 224.72 272.972 224.362 273.202C224.004 273.428 223.725 273.726 223.524 274.097C223.328 274.463 223.228 274.866 223.224 275.305V276.666C223.224 277.237 223.328 277.727 223.537 278.136C223.746 278.541 224.038 278.852 224.413 279.07C224.788 279.283 225.227 279.389 225.73 279.389C226.066 279.389 226.371 279.342 226.644 279.249C226.916 279.151 227.153 279.008 227.353 278.82C227.553 278.633 227.705 278.401 227.807 278.124L229.968 278.366C229.831 278.937 229.571 279.436 229.188 279.862C228.808 280.284 228.323 280.612 227.73 280.847C227.138 281.077 226.46 281.192 225.698 281.192ZM239.781 273.777L237.672 274.007C237.612 273.794 237.507 273.594 237.358 273.406C237.213 273.219 237.017 273.067 236.77 272.952C236.523 272.837 236.221 272.78 235.863 272.78C235.381 272.78 234.976 272.884 234.648 273.093C234.324 273.302 234.164 273.572 234.169 273.905C234.164 274.19 234.269 274.423 234.482 274.602C234.699 274.781 235.057 274.928 235.556 275.043L237.23 275.401C238.159 275.601 238.85 275.918 239.301 276.353C239.757 276.788 239.988 277.357 239.992 278.06C239.988 278.678 239.806 279.223 239.449 279.696C239.095 280.165 238.603 280.531 237.972 280.795C237.341 281.06 236.617 281.192 235.799 281.192C234.597 281.192 233.63 280.94 232.897 280.438C232.164 279.93 231.727 279.225 231.586 278.322L233.843 278.104C233.945 278.548 234.162 278.882 234.495 279.108C234.827 279.334 235.26 279.447 235.792 279.447C236.342 279.447 236.783 279.334 237.115 279.108C237.452 278.882 237.62 278.603 237.62 278.271C237.62 277.989 237.512 277.757 237.294 277.574C237.081 277.391 236.749 277.25 236.297 277.152L234.623 276.8C233.681 276.604 232.984 276.274 232.532 275.81C232.081 275.341 231.857 274.749 231.861 274.033C231.857 273.428 232.021 272.903 232.353 272.46C232.69 272.013 233.157 271.668 233.753 271.425C234.354 271.178 235.047 271.054 235.831 271.054C236.981 271.054 237.887 271.299 238.547 271.789C239.212 272.279 239.623 272.942 239.781 273.777Z" fill="#101828"/>
<rect x="80.5" y="189.5" width="175" height="117" rx="11.5" stroke="#155EEF"/>
</g>
<defs>
<filter id="filter0_dd_773_7233" x="274" y="106" width="260" height="76" filterUnits="userSpaceOnUse" color-interpolation-filters="sRGB">
<feFlood flood-opacity="0" result="BackgroundImageFix"/>
<feColorMatrix in="SourceAlpha" type="matrix" values="0 0 0 0 0 0 0 0 0 0 0 0 0 0 0 0 0 0 127 0" result="hardAlpha"/>
<feMorphology radius="2" operator="erode" in="SourceAlpha" result="effect1_dropShadow_773_7233"/>
<feOffset dy="2"/>
<feGaussianBlur stdDeviation="2"/>
<feColorMatrix type="matrix" values="0 0 0 0 0.0627451 0 0 0 0 0.0941176 0 0 0 0 0.156863 0 0 0 0.06 0"/>
<feBlend mode="normal" in2="BackgroundImageFix" result="effect1_dropShadow_773_7233"/>
<feColorMatrix in="SourceAlpha" type="matrix" values="0 0 0 0 0 0 0 0 0 0 0 0 0 0 0 0 0 0 127 0" result="hardAlpha"/>
<feMorphology radius="2" operator="erode" in="SourceAlpha" result="effect2_dropShadow_773_7233"/>
<feOffset dy="4"/>
<feGaussianBlur stdDeviation="4"/>
<feColorMatrix type="matrix" values="0 0 0 0 0.0627451 0 0 0 0 0.0941176 0 0 0 0 0.156863 0 0 0 0.1 0"/>
<feBlend mode="normal" in2="effect1_dropShadow_773_7233" result="effect2_dropShadow_773_7233"/>
<feBlend mode="normal" in="SourceGraphic" in2="effect2_dropShadow_773_7233" result="shape"/>
</filter>
<filter id="filter1_dd_773_7233" x="274" y="186" width="260" height="76" filterUnits="userSpaceOnUse" color-interpolation-filters="sRGB">
<feFlood flood-opacity="0" result="BackgroundImageFix"/>
<feColorMatrix in="SourceAlpha" type="matrix" values="0 0 0 0 0 0 0 0 0 0 0 0 0 0 0 0 0 0 127 0" result="hardAlpha"/>
<feMorphology radius="2" operator="erode" in="SourceAlpha" result="effect1_dropShadow_773_7233"/>
<feOffset dy="2"/>
<feGaussianBlur stdDeviation="2"/>
<feColorMatrix type="matrix" values="0 0 0 0 0.0627451 0 0 0 0 0.0941176 0 0 0 0 0.156863 0 0 0 0.06 0"/>
<feBlend mode="normal" in2="BackgroundImageFix" result="effect1_dropShadow_773_7233"/>
<feColorMatrix in="SourceAlpha" type="matrix" values="0 0 0 0 0 0 0 0 0 0 0 0 0 0 0 0 0 0 127 0" result="hardAlpha"/>
<feMorphology radius="2" operator="erode" in="SourceAlpha" result="effect2_dropShadow_773_7233"/>
<feOffset dy="4"/>
<feGaussianBlur stdDeviation="4"/>
<feColorMatrix type="matrix" values="0 0 0 0 0.0627451 0 0 0 0 0.0941176 0 0 0 0 0.156863 0 0 0 0.1 0"/>
<feBlend mode="normal" in2="effect1_dropShadow_773_7233" result="effect2_dropShadow_773_7233"/>
<feBlend mode="normal" in="SourceGraphic" in2="effect2_dropShadow_773_7233" result="shape"/>
</filter>
<filter id="filter2_dd_773_7233" x="274" y="266" width="260" height="76" filterUnits="userSpaceOnUse" color-interpolation-filters="sRGB">
<feFlood flood-opacity="0" result="BackgroundImageFix"/>
<feColorMatrix in="SourceAlpha" type="matrix" values="0 0 0 0 0 0 0 0 0 0 0 0 0 0 0 0 0 0 127 0" result="hardAlpha"/>
<feMorphology radius="2" operator="erode" in="SourceAlpha" result="effect1_dropShadow_773_7233"/>
<feOffset dy="2"/>
<feGaussianBlur stdDeviation="2"/>
<feColorMatrix type="matrix" values="0 0 0 0 0.0627451 0 0 0 0 0.0941176 0 0 0 0 0.156863 0 0 0 0.06 0"/>
<feBlend mode="normal" in2="BackgroundImageFix" result="effect1_dropShadow_773_7233"/>
<feColorMatrix in="SourceAlpha" type="matrix" values="0 0 0 0 0 0 0 0 0 0 0 0 0 0 0 0 0 0 127 0" result="hardAlpha"/>
<feMorphology radius="2" operator="erode" in="SourceAlpha" result="effect2_dropShadow_773_7233"/>
<feOffset dy="4"/>
<feGaussianBlur stdDeviation="4"/>
<feColorMatrix type="matrix" values="0 0 0 0 0.0627451 0 0 0 0 0.0941176 0 0 0 0 0.156863 0 0 0 0.1 0"/>
<feBlend mode="normal" in2="effect1_dropShadow_773_7233" result="effect2_dropShadow_773_7233"/>
<feBlend mode="normal" in="SourceGraphic" in2="effect2_dropShadow_773_7233" result="shape"/>
</filter>
<filter id="filter3_dd_773_7233" x="274" y="346" width="260" height="76" filterUnits="userSpaceOnUse" color-interpolation-filters="sRGB">
<feFlood flood-opacity="0" result="BackgroundImageFix"/>
<feColorMatrix in="SourceAlpha" type="matrix" values="0 0 0 0 0 0 0 0 0 0 0 0 0 0 0 0 0 0 127 0" result="hardAlpha"/>
<feMorphology radius="2" operator="erode" in="SourceAlpha" result="effect1_dropShadow_773_7233"/>
<feOffset dy="2"/>
<feGaussianBlur stdDeviation="2"/>
<feColorMatrix type="matrix" values="0 0 0 0 0.0627451 0 0 0 0 0.0941176 0 0 0 0 0.156863 0 0 0 0.06 0"/>
<feBlend mode="normal" in2="BackgroundImageFix" result="effect1_dropShadow_773_7233"/>
<feColorMatrix in="SourceAlpha" type="matrix" values="0 0 0 0 0 0 0 0 0 0 0 0 0 0 0 0 0 0 127 0" result="hardAlpha"/>
<feMorphology radius="2" operator="erode" in="SourceAlpha" result="effect2_dropShadow_773_7233"/>
<feOffset dy="4"/>
<feGaussianBlur stdDeviation="4"/>
<feColorMatrix type="matrix" values="0 0 0 0 0.0627451 0 0 0 0 0.0941176 0 0 0 0 0.156863 0 0 0 0.1 0"/>
<feBlend mode="normal" in2="effect1_dropShadow_773_7233" result="effect2_dropShadow_773_7233"/>
<feBlend mode="normal" in="SourceGraphic" in2="effect2_dropShadow_773_7233" result="shape"/>
</filter>
<filter id="filter4_dd_773_7233" x="274" y="426" width="260" height="76" filterUnits="userSpaceOnUse" color-interpolation-filters="sRGB">
<feFlood flood-opacity="0" result="BackgroundImageFix"/>
<feColorMatrix in="SourceAlpha" type="matrix" values="0 0 0 0 0 0 0 0 0 0 0 0 0 0 0 0 0 0 127 0" result="hardAlpha"/>
<feMorphology radius="2" operator="erode" in="SourceAlpha" result="effect1_dropShadow_773_7233"/>
<feOffset dy="2"/>
<feGaussianBlur stdDeviation="2"/>
<feColorMatrix type="matrix" values="0 0 0 0 0.0627451 0 0 0 0 0.0941176 0 0 0 0 0.156863 0 0 0 0.06 0"/>
<feBlend mode="normal" in2="BackgroundImageFix" result="effect1_dropShadow_773_7233"/>
<feColorMatrix in="SourceAlpha" type="matrix" values="0 0 0 0 0 0 0 0 0 0 0 0 0 0 0 0 0 0 127 0" result="hardAlpha"/>
<feMorphology radius="2" operator="erode" in="SourceAlpha" result="effect2_dropShadow_773_7233"/>
<feOffset dy="4"/>
<feGaussianBlur stdDeviation="4"/>
<feColorMatrix type="matrix" values="0 0 0 0 0.0627451 0 0 0 0 0.0941176 0 0 0 0 0.156863 0 0 0 0.1 0"/>
<feBlend mode="normal" in2="effect1_dropShadow_773_7233" result="effect2_dropShadow_773_7233"/>
<feBlend mode="normal" in="SourceGraphic" in2="effect2_dropShadow_773_7233" result="shape"/>
</filter>
<filter id="filter5_dd_773_7233" x="74" y="187" width="188" height="130" filterUnits="userSpaceOnUse" color-interpolation-filters="sRGB">
<feFlood flood-opacity="0" result="BackgroundImageFix"/>
<feColorMatrix in="SourceAlpha" type="matrix" values="0 0 0 0 0 0 0 0 0 0 0 0 0 0 0 0 0 0 127 0" result="hardAlpha"/>
<feMorphology radius="2" operator="erode" in="SourceAlpha" result="effect1_dropShadow_773_7233"/>
<feOffset dy="2"/>
<feGaussianBlur stdDeviation="2"/>
<feColorMatrix type="matrix" values="0 0 0 0 0.0627451 0 0 0 0 0.0941176 0 0 0 0 0.156863 0 0 0 0.06 0"/>
<feBlend mode="normal" in2="BackgroundImageFix" result="effect1_dropShadow_773_7233"/>
<feColorMatrix in="SourceAlpha" type="matrix" values="0 0 0 0 0 0 0 0 0 0 0 0 0 0 0 0 0 0 127 0" result="hardAlpha"/>
<feMorphology radius="2" operator="erode" in="SourceAlpha" result="effect2_dropShadow_773_7233"/>
<feOffset dy="4"/>
<feGaussianBlur stdDeviation="4"/>
<feColorMatrix type="matrix" values="0 0 0 0 0.0627451 0 0 0 0 0.0941176 0 0 0 0 0.156863 0 0 0 0.1 0"/>
<feBlend mode="normal" in2="effect1_dropShadow_773_7233" result="effect2_dropShadow_773_7233"/>
<feBlend mode="normal" in="SourceGraphic" in2="effect2_dropShadow_773_7233" result="shape"/>
</filter>
</defs>
</svg>
