<svg width="600" height="600" viewBox="0 0 600 600" fill="none" xmlns="http://www.w3.org/2000/svg">
<rect x="43.5" y="166.5" width="513" height="291" rx="24.5" fill="#EFF4FF"/>
<rect x="43.5" y="166.5" width="513" height="291" rx="24.5" stroke="#B2CCFF"/>
<g filter="url(#filter0_dd_773_7147)">
<rect x="280" y="116" width="248" height="64" rx="12" fill="white"/>
<rect x="295" y="128" width="40" height="40" rx="8" fill="#EFF4FF"/>
<path opacity="0.2" d="M324 148C324 149.78 323.472 151.52 322.483 153C321.494 154.48 320.089 155.634 318.444 156.315C316.8 156.996 314.99 157.174 313.244 156.827C311.498 156.48 309.895 155.623 308.636 154.364C307.377 153.105 306.52 151.502 306.173 149.756C305.826 148.01 306.004 146.2 306.685 144.556C307.366 142.911 308.52 141.506 310 140.517C311.48 139.528 313.22 139 315 139C317.387 139 319.676 139.948 321.364 141.636C323.052 143.324 324 145.613 324 148Z" fill="#004EEB"/>
<path d="M315 138.25C313.072 138.25 311.187 138.822 309.583 139.893C307.98 140.965 306.73 142.487 305.992 144.269C305.254 146.05 305.061 148.011 305.437 149.902C305.814 151.793 306.742 153.531 308.106 154.894C309.469 156.258 311.207 157.186 313.098 157.563C314.989 157.939 316.95 157.746 318.731 157.008C320.513 156.27 322.035 155.02 323.107 153.417C324.178 151.813 324.75 149.928 324.75 148C324.747 145.415 323.719 142.937 321.891 141.109C320.063 139.281 317.585 138.253 315 138.25ZM315 156.25C313.368 156.25 311.773 155.766 310.417 154.86C309.06 153.953 308.002 152.665 307.378 151.157C306.754 149.65 306.59 147.991 306.909 146.391C307.227 144.79 308.013 143.32 309.166 142.166C310.32 141.013 311.79 140.227 313.391 139.909C314.991 139.59 316.65 139.754 318.157 140.378C319.665 141.002 320.953 142.06 321.86 143.417C322.766 144.773 323.25 146.368 323.25 148C323.248 150.187 322.378 152.284 320.831 153.831C319.284 155.378 317.187 156.248 315 156.25ZM310.5 146.125C310.5 145.902 310.566 145.685 310.69 145.5C310.813 145.315 310.989 145.171 311.194 145.086C311.4 145 311.626 144.978 311.844 145.022C312.063 145.065 312.263 145.172 312.42 145.33C312.578 145.487 312.685 145.687 312.728 145.906C312.772 146.124 312.75 146.35 312.664 146.556C312.579 146.761 312.435 146.937 312.25 147.06C312.065 147.184 311.848 147.25 311.625 147.25C311.327 147.25 311.04 147.131 310.83 146.92C310.619 146.71 310.5 146.423 310.5 146.125ZM319.5 146.125C319.5 146.348 319.434 146.565 319.31 146.75C319.187 146.935 319.011 147.079 318.806 147.164C318.6 147.25 318.374 147.272 318.156 147.228C317.937 147.185 317.737 147.078 317.58 146.92C317.422 146.763 317.315 146.563 317.272 146.344C317.228 146.126 317.25 145.9 317.336 145.694C317.421 145.489 317.565 145.313 317.75 145.19C317.935 145.066 318.152 145 318.375 145C318.673 145 318.96 145.119 319.17 145.33C319.381 145.54 319.5 145.827 319.5 146.125ZM319.399 150.625C318.434 152.293 316.831 153.25 315 153.25C313.169 153.25 311.566 152.294 310.601 150.625C310.547 150.54 310.511 150.444 310.494 150.344C310.478 150.245 310.482 150.142 310.506 150.044C310.53 149.946 310.573 149.854 310.634 149.773C310.695 149.692 310.771 149.624 310.859 149.573C310.946 149.523 311.043 149.49 311.144 149.478C311.244 149.466 311.346 149.474 311.443 149.502C311.54 149.531 311.631 149.578 311.709 149.642C311.787 149.706 311.852 149.785 311.899 149.875C312.599 151.085 313.7 151.75 315 151.75C316.3 151.75 317.401 151.084 318.101 149.875C318.148 149.785 318.213 149.706 318.291 149.642C318.369 149.578 318.46 149.531 318.557 149.502C318.654 149.474 318.756 149.466 318.856 149.478C318.957 149.49 319.054 149.523 319.141 149.573C319.229 149.624 319.305 149.692 319.366 149.773C319.427 149.854 319.47 149.946 319.494 150.044C319.518 150.142 319.522 150.245 319.506 150.344C319.489 150.444 319.453 150.54 319.399 150.625Z" fill="#004EEB"/>
<rect x="345" y="128" width="162" height="6" rx="2" fill="#EAECF0"/>
<rect x="345" y="143" width="162" height="6" rx="2" fill="#EAECF0"/>
<rect x="345" y="158" width="103" height="6" rx="2" fill="#EAECF0"/>
<rect x="280.5" y="116.5" width="247" height="63" rx="11.5" stroke="#B2CCFF"/>
</g>
<g filter="url(#filter1_dd_773_7147)">
<rect x="280" y="192" width="248" height="64" rx="12" fill="#155EEF"/>
<rect x="295" y="204" width="40" height="40" rx="8" fill="white"/>
<path opacity="0.2" d="M324 224C324 225.78 323.472 227.52 322.483 229C321.494 230.48 320.089 231.634 318.444 232.315C316.8 232.996 314.99 233.174 313.244 232.827C311.498 232.48 309.895 231.623 308.636 230.364C307.377 229.105 306.52 227.502 306.173 225.756C305.826 224.01 306.004 222.2 306.685 220.556C307.366 218.911 308.52 217.506 310 216.517C311.48 215.528 313.22 215 315 215C317.387 215 319.676 215.948 321.364 217.636C323.052 219.324 324 221.613 324 224Z" fill="#004EEB"/>
<path d="M315 214.25C313.072 214.25 311.187 214.822 309.583 215.893C307.98 216.965 306.73 218.487 305.992 220.269C305.254 222.05 305.061 224.011 305.437 225.902C305.814 227.793 306.742 229.531 308.106 230.894C309.469 232.258 311.207 233.186 313.098 233.563C314.989 233.939 316.95 233.746 318.731 233.008C320.513 232.27 322.035 231.02 323.107 229.417C324.178 227.813 324.75 225.928 324.75 224C324.747 221.415 323.719 218.937 321.891 217.109C320.063 215.281 317.585 214.253 315 214.25ZM315 232.25C313.368 232.25 311.773 231.766 310.417 230.86C309.06 229.953 308.002 228.665 307.378 227.157C306.754 225.65 306.59 223.991 306.909 222.391C307.227 220.79 308.013 219.32 309.166 218.166C310.32 217.013 311.79 216.227 313.391 215.909C314.991 215.59 316.65 215.754 318.157 216.378C319.665 217.002 320.953 218.06 321.86 219.417C322.766 220.773 323.25 222.368 323.25 224C323.248 226.187 322.378 228.284 320.831 229.831C319.284 231.378 317.187 232.248 315 232.25ZM310.5 222.125C310.5 221.902 310.566 221.685 310.69 221.5C310.813 221.315 310.989 221.171 311.194 221.086C311.4 221 311.626 220.978 311.844 221.022C312.063 221.065 312.263 221.172 312.42 221.33C312.578 221.487 312.685 221.687 312.728 221.906C312.772 222.124 312.75 222.35 312.664 222.556C312.579 222.761 312.435 222.937 312.25 223.06C312.065 223.184 311.848 223.25 311.625 223.25C311.327 223.25 311.04 223.131 310.83 222.92C310.619 222.71 310.5 222.423 310.5 222.125ZM319.5 222.125C319.5 222.348 319.434 222.565 319.31 222.75C319.187 222.935 319.011 223.079 318.806 223.164C318.6 223.25 318.374 223.272 318.156 223.228C317.937 223.185 317.737 223.078 317.58 222.92C317.422 222.763 317.315 222.563 317.272 222.344C317.228 222.126 317.25 221.9 317.336 221.694C317.421 221.489 317.565 221.313 317.75 221.19C317.935 221.066 318.152 221 318.375 221C318.673 221 318.96 221.119 319.17 221.33C319.381 221.54 319.5 221.827 319.5 222.125ZM319.399 226.625C318.434 228.293 316.831 229.25 315 229.25C313.169 229.25 311.566 228.294 310.601 226.625C310.547 226.54 310.511 226.444 310.494 226.344C310.478 226.245 310.482 226.142 310.506 226.044C310.53 225.946 310.573 225.854 310.634 225.773C310.695 225.692 310.771 225.624 310.859 225.573C310.946 225.523 311.043 225.49 311.144 225.478C311.244 225.466 311.346 225.474 311.443 225.502C311.54 225.531 311.631 225.578 311.709 225.642C311.787 225.706 311.852 225.785 311.899 225.875C312.599 227.085 313.7 227.75 315 227.75C316.3 227.75 317.401 227.084 318.101 225.875C318.148 225.785 318.213 225.706 318.291 225.642C318.369 225.578 318.46 225.531 318.557 225.502C318.654 225.474 318.756 225.466 318.856 225.478C318.957 225.49 319.054 225.523 319.141 225.573C319.229 225.624 319.305 225.692 319.366 225.773C319.427 225.854 319.47 225.946 319.494 226.044C319.518 226.142 319.522 226.245 319.506 226.344C319.489 226.444 319.453 226.54 319.399 226.625Z" fill="#004EEB"/>
<rect x="345" y="204" width="162" height="6" rx="2" fill="white"/>
<rect x="345" y="219" width="162" height="6" rx="2" fill="white"/>
<rect x="345" y="234" width="103" height="6" rx="2" fill="white"/>
</g>
<g filter="url(#filter2_dd_773_7147)">
<rect x="280" y="268" width="248" height="64" rx="12" fill="white"/>
<rect x="295" y="280" width="40" height="40" rx="8" fill="#EFF4FF"/>
<path opacity="0.2" d="M324 300C324 301.78 323.472 303.52 322.483 305C321.494 306.48 320.089 307.634 318.444 308.315C316.8 308.996 314.99 309.174 313.244 308.827C311.498 308.48 309.895 307.623 308.636 306.364C307.377 305.105 306.52 303.502 306.173 301.756C305.826 300.01 306.004 298.2 306.685 296.556C307.366 294.911 308.52 293.506 310 292.517C311.48 291.528 313.22 291 315 291C317.387 291 319.676 291.948 321.364 293.636C323.052 295.324 324 297.613 324 300Z" fill="#004EEB"/>
<path d="M315 290.25C313.072 290.25 311.187 290.822 309.583 291.893C307.98 292.965 306.73 294.487 305.992 296.269C305.254 298.05 305.061 300.011 305.437 301.902C305.814 303.793 306.742 305.531 308.106 306.894C309.469 308.258 311.207 309.186 313.098 309.563C314.989 309.939 316.95 309.746 318.731 309.008C320.513 308.27 322.035 307.02 323.107 305.417C324.178 303.813 324.75 301.928 324.75 300C324.747 297.415 323.719 294.937 321.891 293.109C320.063 291.281 317.585 290.253 315 290.25ZM315 308.25C313.368 308.25 311.773 307.766 310.417 306.86C309.06 305.953 308.002 304.665 307.378 303.157C306.754 301.65 306.59 299.991 306.909 298.391C307.227 296.79 308.013 295.32 309.166 294.166C310.32 293.013 311.79 292.227 313.391 291.909C314.991 291.59 316.65 291.754 318.157 292.378C319.665 293.002 320.953 294.06 321.86 295.417C322.766 296.773 323.25 298.368 323.25 300C323.248 302.187 322.378 304.284 320.831 305.831C319.284 307.378 317.187 308.248 315 308.25ZM310.5 298.125C310.5 297.902 310.566 297.685 310.69 297.5C310.813 297.315 310.989 297.171 311.194 297.086C311.4 297 311.626 296.978 311.844 297.022C312.063 297.065 312.263 297.172 312.42 297.33C312.578 297.487 312.685 297.687 312.728 297.906C312.772 298.124 312.75 298.35 312.664 298.556C312.579 298.761 312.435 298.937 312.25 299.06C312.065 299.184 311.848 299.25 311.625 299.25C311.327 299.25 311.04 299.131 310.83 298.92C310.619 298.71 310.5 298.423 310.5 298.125ZM319.5 298.125C319.5 298.348 319.434 298.565 319.31 298.75C319.187 298.935 319.011 299.079 318.806 299.164C318.6 299.25 318.374 299.272 318.156 299.228C317.937 299.185 317.737 299.078 317.58 298.92C317.422 298.763 317.315 298.563 317.272 298.344C317.228 298.126 317.25 297.9 317.336 297.694C317.421 297.489 317.565 297.313 317.75 297.19C317.935 297.066 318.152 297 318.375 297C318.673 297 318.96 297.119 319.17 297.33C319.381 297.54 319.5 297.827 319.5 298.125ZM319.399 302.625C318.434 304.293 316.831 305.25 315 305.25C313.169 305.25 311.566 304.294 310.601 302.625C310.547 302.54 310.511 302.444 310.494 302.344C310.478 302.245 310.482 302.142 310.506 302.044C310.53 301.946 310.573 301.854 310.634 301.773C310.695 301.692 310.771 301.624 310.859 301.573C310.946 301.523 311.043 301.49 311.144 301.478C311.244 301.466 311.346 301.474 311.443 301.502C311.54 301.531 311.631 301.578 311.709 301.642C311.787 301.706 311.852 301.785 311.899 301.875C312.599 303.085 313.7 303.75 315 303.75C316.3 303.75 317.401 303.084 318.101 301.875C318.148 301.785 318.213 301.706 318.291 301.642C318.369 301.578 318.46 301.531 318.557 301.502C318.654 301.474 318.756 301.466 318.856 301.478C318.957 301.49 319.054 301.523 319.141 301.573C319.229 301.624 319.305 301.692 319.366 301.773C319.427 301.854 319.47 301.946 319.494 302.044C319.518 302.142 319.522 302.245 319.506 302.344C319.489 302.444 319.453 302.54 319.399 302.625Z" fill="#004EEB"/>
<rect x="345" y="280" width="162" height="6" rx="2" fill="#EAECF0"/>
<rect x="345" y="295" width="162" height="6" rx="2" fill="#EAECF0"/>
<rect x="345" y="310" width="103" height="6" rx="2" fill="#EAECF0"/>
<rect x="280.5" y="268.5" width="247" height="63" rx="11.5" stroke="#B2CCFF"/>
</g>
<g filter="url(#filter3_dd_773_7147)">
<rect x="280" y="344" width="248" height="64" rx="12" fill="white"/>
<rect x="295" y="356" width="40" height="40" rx="8" fill="#EFF4FF"/>
<path opacity="0.2" d="M324 376C324 377.78 323.472 379.52 322.483 381C321.494 382.48 320.089 383.634 318.444 384.315C316.8 384.996 314.99 385.174 313.244 384.827C311.498 384.48 309.895 383.623 308.636 382.364C307.377 381.105 306.52 379.502 306.173 377.756C305.826 376.01 306.004 374.2 306.685 372.556C307.366 370.911 308.52 369.506 310 368.517C311.48 367.528 313.22 367 315 367C317.387 367 319.676 367.948 321.364 369.636C323.052 371.324 324 373.613 324 376Z" fill="#004EEB"/>
<path d="M315 366.25C313.072 366.25 311.187 366.822 309.583 367.893C307.98 368.965 306.73 370.487 305.992 372.269C305.254 374.05 305.061 376.011 305.437 377.902C305.814 379.793 306.742 381.531 308.106 382.894C309.469 384.258 311.207 385.186 313.098 385.563C314.989 385.939 316.95 385.746 318.731 385.008C320.513 384.27 322.035 383.02 323.107 381.417C324.178 379.813 324.75 377.928 324.75 376C324.747 373.415 323.719 370.937 321.891 369.109C320.063 367.281 317.585 366.253 315 366.25ZM315 384.25C313.368 384.25 311.773 383.766 310.417 382.86C309.06 381.953 308.002 380.665 307.378 379.157C306.754 377.65 306.59 375.991 306.909 374.391C307.227 372.79 308.013 371.32 309.166 370.166C310.32 369.013 311.79 368.227 313.391 367.909C314.991 367.59 316.65 367.754 318.157 368.378C319.665 369.002 320.953 370.06 321.86 371.417C322.766 372.773 323.25 374.368 323.25 376C323.248 378.187 322.378 380.284 320.831 381.831C319.284 383.378 317.187 384.248 315 384.25ZM310.5 374.125C310.5 373.902 310.566 373.685 310.69 373.5C310.813 373.315 310.989 373.171 311.194 373.086C311.4 373 311.626 372.978 311.844 373.022C312.063 373.065 312.263 373.172 312.42 373.33C312.578 373.487 312.685 373.687 312.728 373.906C312.772 374.124 312.75 374.35 312.664 374.556C312.579 374.761 312.435 374.937 312.25 375.06C312.065 375.184 311.848 375.25 311.625 375.25C311.327 375.25 311.04 375.131 310.83 374.92C310.619 374.71 310.5 374.423 310.5 374.125ZM319.5 374.125C319.5 374.348 319.434 374.565 319.31 374.75C319.187 374.935 319.011 375.079 318.806 375.164C318.6 375.25 318.374 375.272 318.156 375.228C317.937 375.185 317.737 375.078 317.58 374.92C317.422 374.763 317.315 374.563 317.272 374.344C317.228 374.126 317.25 373.9 317.336 373.694C317.421 373.489 317.565 373.313 317.75 373.19C317.935 373.066 318.152 373 318.375 373C318.673 373 318.96 373.119 319.17 373.33C319.381 373.54 319.5 373.827 319.5 374.125ZM319.399 378.625C318.434 380.293 316.831 381.25 315 381.25C313.169 381.25 311.566 380.294 310.601 378.625C310.547 378.54 310.511 378.444 310.494 378.344C310.478 378.245 310.482 378.142 310.506 378.044C310.53 377.946 310.573 377.854 310.634 377.773C310.695 377.692 310.771 377.624 310.859 377.573C310.946 377.523 311.043 377.49 311.144 377.478C311.244 377.466 311.346 377.474 311.443 377.502C311.54 377.531 311.631 377.578 311.709 377.642C311.787 377.706 311.852 377.785 311.899 377.875C312.599 379.085 313.7 379.75 315 379.75C316.3 379.75 317.401 379.084 318.101 377.875C318.148 377.785 318.213 377.706 318.291 377.642C318.369 377.578 318.46 377.531 318.557 377.502C318.654 377.474 318.756 377.466 318.856 377.478C318.957 377.49 319.054 377.523 319.141 377.573C319.229 377.624 319.305 377.692 319.366 377.773C319.427 377.854 319.47 377.946 319.494 378.044C319.518 378.142 319.522 378.245 319.506 378.344C319.489 378.444 319.453 378.54 319.399 378.625Z" fill="#004EEB"/>
<rect x="345" y="356" width="162" height="6" rx="2" fill="#EAECF0"/>
<rect x="345" y="371" width="162" height="6" rx="2" fill="#EAECF0"/>
<rect x="345" y="386" width="103" height="6" rx="2" fill="#EAECF0"/>
<rect x="280.5" y="344.5" width="247" height="63" rx="11.5" stroke="#B2CCFF"/>
</g>
<g filter="url(#filter4_dd_773_7147)">
<rect x="280" y="420" width="248" height="64" rx="12" fill="white"/>
<rect x="295" y="432" width="40" height="40" rx="8" fill="#EFF4FF"/>
<path opacity="0.2" d="M324 452C324 453.78 323.472 455.52 322.483 457C321.494 458.48 320.089 459.634 318.444 460.315C316.8 460.996 314.99 461.174 313.244 460.827C311.498 460.48 309.895 459.623 308.636 458.364C307.377 457.105 306.52 455.502 306.173 453.756C305.826 452.01 306.004 450.2 306.685 448.556C307.366 446.911 308.52 445.506 310 444.517C311.48 443.528 313.22 443 315 443C317.387 443 319.676 443.948 321.364 445.636C323.052 447.324 324 449.613 324 452Z" fill="#004EEB"/>
<path d="M315 442.25C313.072 442.25 311.187 442.822 309.583 443.893C307.98 444.965 306.73 446.487 305.992 448.269C305.254 450.05 305.061 452.011 305.437 453.902C305.814 455.793 306.742 457.531 308.106 458.894C309.469 460.258 311.207 461.186 313.098 461.563C314.989 461.939 316.95 461.746 318.731 461.008C320.513 460.27 322.035 459.02 323.107 457.417C324.178 455.813 324.75 453.928 324.75 452C324.747 449.415 323.719 446.937 321.891 445.109C320.063 443.281 317.585 442.253 315 442.25ZM315 460.25C313.368 460.25 311.773 459.766 310.417 458.86C309.06 457.953 308.002 456.665 307.378 455.157C306.754 453.65 306.59 451.991 306.909 450.391C307.227 448.79 308.013 447.32 309.166 446.166C310.32 445.013 311.79 444.227 313.391 443.909C314.991 443.59 316.65 443.754 318.157 444.378C319.665 445.002 320.953 446.06 321.86 447.417C322.766 448.773 323.25 450.368 323.25 452C323.248 454.187 322.378 456.284 320.831 457.831C319.284 459.378 317.187 460.248 315 460.25ZM310.5 450.125C310.5 449.902 310.566 449.685 310.69 449.5C310.813 449.315 310.989 449.171 311.194 449.086C311.4 449 311.626 448.978 311.844 449.022C312.063 449.065 312.263 449.172 312.42 449.33C312.578 449.487 312.685 449.687 312.728 449.906C312.772 450.124 312.75 450.35 312.664 450.556C312.579 450.761 312.435 450.937 312.25 451.06C312.065 451.184 311.848 451.25 311.625 451.25C311.327 451.25 311.04 451.131 310.83 450.92C310.619 450.71 310.5 450.423 310.5 450.125ZM319.5 450.125C319.5 450.348 319.434 450.565 319.31 450.75C319.187 450.935 319.011 451.079 318.806 451.164C318.6 451.25 318.374 451.272 318.156 451.228C317.937 451.185 317.737 451.078 317.58 450.92C317.422 450.763 317.315 450.563 317.272 450.344C317.228 450.126 317.25 449.9 317.336 449.694C317.421 449.489 317.565 449.313 317.75 449.19C317.935 449.066 318.152 449 318.375 449C318.673 449 318.96 449.119 319.17 449.33C319.381 449.54 319.5 449.827 319.5 450.125ZM319.399 454.625C318.434 456.293 316.831 457.25 315 457.25C313.169 457.25 311.566 456.294 310.601 454.625C310.547 454.54 310.511 454.444 310.494 454.344C310.478 454.245 310.482 454.142 310.506 454.044C310.53 453.946 310.573 453.854 310.634 453.773C310.695 453.692 310.771 453.624 310.859 453.573C310.946 453.523 311.043 453.49 311.144 453.478C311.244 453.466 311.346 453.474 311.443 453.502C311.54 453.531 311.631 453.578 311.709 453.642C311.787 453.706 311.852 453.785 311.899 453.875C312.599 455.085 313.7 455.75 315 455.75C316.3 455.75 317.401 455.084 318.101 453.875C318.148 453.785 318.213 453.706 318.291 453.642C318.369 453.578 318.46 453.531 318.557 453.502C318.654 453.474 318.756 453.466 318.856 453.478C318.957 453.49 319.054 453.523 319.141 453.573C319.229 453.624 319.305 453.692 319.366 453.773C319.427 453.854 319.47 453.946 319.494 454.044C319.518 454.142 319.522 454.245 319.506 454.344C319.489 454.444 319.453 454.54 319.399 454.625Z" fill="#004EEB"/>
<rect x="345" y="432" width="162" height="6" rx="2" fill="#EAECF0"/>
<rect x="345" y="447" width="162" height="6" rx="2" fill="#EAECF0"/>
<rect x="345" y="462" width="103" height="6" rx="2" fill="#EAECF0"/>
<rect x="280.5" y="420.5" width="247" height="63" rx="11.5" stroke="#B2CCFF"/>
</g>
<g filter="url(#filter5_dd_773_7147)">
<rect x="80" y="189" width="176" height="184" rx="8" fill="white"/>
<rect x="132" y="208" width="111" height="6" rx="2" fill="#EAECF0"/>
<rect x="132" y="220" width="96" height="6" rx="2" fill="#EAECF0"/>
<rect x="92" y="266" width="132" height="6" rx="2" fill="#EAECF0"/>
<rect x="92" y="326" width="132" height="6" rx="2" fill="#EAECF0"/>
<rect x="92" y="278" width="113" height="6" rx="2" fill="#EAECF0"/>
<rect x="92" y="338" width="113" height="6" rx="2" fill="#EAECF0"/>
<rect x="92" y="290" width="135" height="6" rx="2" fill="#EAECF0"/>
<path d="M92.9588 259V250.273H96.0696C96.7486 250.273 97.3111 250.396 97.7571 250.643C98.2031 250.891 98.5369 251.229 98.7585 251.658C98.9801 252.084 99.0909 252.564 99.0909 253.098C99.0909 253.635 98.9787 254.118 98.7543 254.547C98.5327 254.973 98.1974 255.311 97.7486 255.561C97.3026 255.808 96.7415 255.932 96.0653 255.932H93.9261V254.815H95.946C96.375 254.815 96.723 254.741 96.9901 254.594C97.2571 254.443 97.4531 254.239 97.5781 253.98C97.7031 253.722 97.7656 253.428 97.7656 253.098C97.7656 252.768 97.7031 252.476 97.5781 252.22C97.4531 251.964 97.2557 251.764 96.9858 251.619C96.7188 251.474 96.3665 251.402 95.929 251.402H94.2756V259H92.9588ZM100.532 259V252.455H101.764V253.494H101.832C101.951 253.142 102.162 252.865 102.463 252.663C102.767 252.459 103.11 252.357 103.494 252.357C103.574 252.357 103.667 252.359 103.775 252.365C103.886 252.371 103.973 252.378 104.035 252.386V253.605C103.984 253.591 103.893 253.575 103.762 253.558C103.632 253.538 103.501 253.528 103.37 253.528C103.069 253.528 102.801 253.592 102.565 253.72C102.332 253.845 102.147 254.02 102.011 254.244C101.875 254.466 101.806 254.719 101.806 255.003V259H100.532ZM107.661 259.132C107.047 259.132 106.511 258.991 106.054 258.71C105.597 258.429 105.241 258.036 104.989 257.53C104.736 257.024 104.609 256.433 104.609 255.757C104.609 255.078 104.736 254.484 104.989 253.976C105.241 253.467 105.597 253.072 106.054 252.791C106.511 252.51 107.047 252.369 107.661 252.369C108.274 252.369 108.81 252.51 109.267 252.791C109.724 253.072 110.08 253.467 110.332 253.976C110.585 254.484 110.712 255.078 110.712 255.757C110.712 256.433 110.585 257.024 110.332 257.53C110.08 258.036 109.724 258.429 109.267 258.71C108.81 258.991 108.274 259.132 107.661 259.132ZM107.665 258.062C108.063 258.062 108.392 257.957 108.653 257.747C108.915 257.537 109.108 257.257 109.233 256.908C109.361 256.558 109.425 256.173 109.425 255.753C109.425 255.335 109.361 254.952 109.233 254.602C109.108 254.25 108.915 253.967 108.653 253.754C108.392 253.541 108.063 253.435 107.665 253.435C107.264 253.435 106.932 253.541 106.668 253.754C106.406 253.967 106.212 254.25 106.084 254.602C105.959 254.952 105.896 255.335 105.896 255.753C105.896 256.173 105.959 256.558 106.084 256.908C106.212 257.257 106.406 257.537 106.668 257.747C106.932 257.957 107.264 258.062 107.665 258.062ZM115.249 252.455V253.477H111.55V252.455H115.249ZM112.564 259V251.696C112.564 251.287 112.654 250.947 112.833 250.678C113.012 250.405 113.249 250.202 113.544 250.068C113.84 249.932 114.161 249.864 114.507 249.864C114.763 249.864 114.982 249.885 115.164 249.928C115.346 249.967 115.48 250.004 115.569 250.038L115.27 251.07C115.211 251.053 115.134 251.033 115.04 251.01C114.946 250.984 114.833 250.972 114.699 250.972C114.39 250.972 114.168 251.048 114.034 251.202C113.904 251.355 113.838 251.577 113.838 251.866V259H112.564ZM116.564 259V252.455H117.838V259H116.564ZM117.207 251.445C116.985 251.445 116.795 251.371 116.636 251.223C116.48 251.072 116.402 250.893 116.402 250.686C116.402 250.476 116.48 250.297 116.636 250.149C116.795 249.999 116.985 249.923 117.207 249.923C117.429 249.923 117.618 249.999 117.774 250.149C117.933 250.297 118.012 250.476 118.012 250.686C118.012 250.893 117.933 251.072 117.774 251.223C117.618 251.371 117.429 251.445 117.207 251.445ZM120.826 250.273V259H119.552V250.273H120.826ZM125.361 259.132C124.716 259.132 124.161 258.994 123.695 258.719C123.232 258.44 122.874 258.05 122.621 257.547C122.371 257.041 122.246 256.449 122.246 255.77C122.246 255.099 122.371 254.509 122.621 253.997C122.874 253.486 123.226 253.087 123.678 252.8C124.132 252.513 124.664 252.369 125.272 252.369C125.641 252.369 125.999 252.43 126.346 252.553C126.692 252.675 127.003 252.866 127.279 253.128C127.554 253.389 127.772 253.729 127.931 254.146C128.09 254.561 128.169 255.065 128.169 255.659V256.111H122.966V255.156H126.921C126.921 254.821 126.853 254.524 126.716 254.266C126.58 254.004 126.388 253.798 126.141 253.648C125.897 253.497 125.61 253.422 125.28 253.422C124.922 253.422 124.61 253.51 124.343 253.686C124.078 253.859 123.874 254.087 123.729 254.368C123.587 254.646 123.516 254.949 123.516 255.276V256.021C123.516 256.459 123.593 256.831 123.746 257.138C123.902 257.445 124.12 257.679 124.398 257.841C124.676 258 125.002 258.08 125.374 258.08C125.615 258.08 125.836 258.045 126.034 257.977C126.233 257.906 126.405 257.801 126.55 257.662C126.695 257.523 126.806 257.351 126.882 257.146L128.088 257.364C127.992 257.719 127.819 258.03 127.569 258.297C127.321 258.561 127.01 258.767 126.635 258.915C126.263 259.06 125.838 259.132 125.361 259.132Z" fill="#101828"/>
<path d="M94.2756 310.273V319H92.9588V310.273H94.2756ZM97.3651 315.114V319H96.0909V312.455H97.3139V313.52H97.3949C97.5455 313.173 97.7813 312.895 98.1023 312.685C98.4261 312.474 98.8338 312.369 99.3253 312.369C99.7713 312.369 100.162 312.463 100.497 312.651C100.832 312.835 101.092 313.111 101.277 313.477C101.462 313.844 101.554 314.297 101.554 314.837V319H100.28V314.99C100.28 314.516 100.156 314.145 99.9091 313.878C99.6619 313.608 99.3224 313.473 98.8906 313.473C98.5952 313.473 98.3324 313.537 98.1023 313.665C97.875 313.793 97.6946 313.98 97.5611 314.227C97.4304 314.472 97.3651 314.767 97.3651 315.114ZM106.318 312.455V313.477H102.743V312.455H106.318ZM103.702 310.886H104.976V317.078C104.976 317.325 105.013 317.511 105.087 317.636C105.161 317.759 105.256 317.842 105.372 317.888C105.491 317.93 105.621 317.952 105.76 317.952C105.862 317.952 105.952 317.945 106.028 317.93C106.105 317.916 106.165 317.905 106.207 317.896L106.438 318.949C106.364 318.977 106.259 319.006 106.122 319.034C105.986 319.065 105.815 319.082 105.611 319.085C105.276 319.091 104.963 319.031 104.673 318.906C104.384 318.781 104.149 318.588 103.97 318.327C103.791 318.065 103.702 317.737 103.702 317.342V310.886ZM110.478 319.132C109.833 319.132 109.278 318.994 108.812 318.719C108.349 318.44 107.991 318.05 107.738 317.547C107.488 317.041 107.363 316.449 107.363 315.77C107.363 315.099 107.488 314.509 107.738 313.997C107.991 313.486 108.343 313.087 108.795 312.8C109.25 312.513 109.781 312.369 110.389 312.369C110.758 312.369 111.116 312.43 111.463 312.553C111.809 312.675 112.12 312.866 112.396 313.128C112.672 313.389 112.889 313.729 113.048 314.146C113.207 314.561 113.287 315.065 113.287 315.659V316.111H108.083V315.156H112.038C112.038 314.821 111.97 314.524 111.833 314.266C111.697 314.004 111.505 313.798 111.258 313.648C111.014 313.497 110.727 313.422 110.397 313.422C110.039 313.422 109.727 313.51 109.46 313.686C109.196 313.859 108.991 314.087 108.846 314.368C108.704 314.646 108.633 314.949 108.633 315.276V316.021C108.633 316.459 108.71 316.831 108.863 317.138C109.02 317.445 109.237 317.679 109.515 317.841C109.794 318 110.119 318.08 110.491 318.08C110.733 318.08 110.953 318.045 111.152 317.977C111.35 317.906 111.522 317.801 111.667 317.662C111.812 317.523 111.923 317.351 112 317.146L113.206 317.364C113.109 317.719 112.936 318.03 112.686 318.297C112.439 318.561 112.127 318.767 111.752 318.915C111.38 319.06 110.956 319.132 110.478 319.132ZM114.7 319V312.455H115.932V313.494H116C116.119 313.142 116.33 312.865 116.631 312.663C116.935 312.459 117.278 312.357 117.662 312.357C117.741 312.357 117.835 312.359 117.943 312.365C118.054 312.371 118.141 312.378 118.203 312.386V313.605C118.152 313.591 118.061 313.575 117.93 313.558C117.8 313.538 117.669 313.528 117.538 313.528C117.237 313.528 116.969 313.592 116.733 313.72C116.5 313.845 116.315 314.02 116.179 314.244C116.043 314.466 115.974 314.719 115.974 315.003V319H114.7ZM121.892 319.132C121.248 319.132 120.692 318.994 120.226 318.719C119.763 318.44 119.405 318.05 119.152 317.547C118.902 317.041 118.777 316.449 118.777 315.77C118.777 315.099 118.902 314.509 119.152 313.997C119.405 313.486 119.757 313.087 120.209 312.8C120.664 312.513 121.195 312.369 121.803 312.369C122.172 312.369 122.53 312.43 122.877 312.553C123.223 312.675 123.534 312.866 123.81 313.128C124.086 313.389 124.303 313.729 124.462 314.146C124.621 314.561 124.701 315.065 124.701 315.659V316.111H119.498V315.156H123.452C123.452 314.821 123.384 314.524 123.248 314.266C123.111 314.004 122.919 313.798 122.672 313.648C122.428 313.497 122.141 313.422 121.811 313.422C121.453 313.422 121.141 313.51 120.874 313.686C120.61 313.859 120.405 314.087 120.26 314.368C120.118 314.646 120.047 314.949 120.047 315.276V316.021C120.047 316.459 120.124 316.831 120.277 317.138C120.434 317.445 120.651 317.679 120.929 317.841C121.208 318 121.533 318.08 121.905 318.08C122.147 318.08 122.367 318.045 122.566 317.977C122.765 317.906 122.936 317.801 123.081 317.662C123.226 317.523 123.337 317.351 123.414 317.146L124.62 317.364C124.523 317.719 124.35 318.03 124.1 318.297C123.853 318.561 123.542 318.767 123.167 318.915C122.794 319.06 122.37 319.132 121.892 319.132ZM131.019 314.053L129.864 314.257C129.816 314.109 129.739 313.969 129.634 313.835C129.532 313.702 129.393 313.592 129.217 313.507C129.04 313.422 128.82 313.379 128.556 313.379C128.195 313.379 127.894 313.46 127.653 313.622C127.411 313.781 127.29 313.987 127.29 314.24C127.29 314.459 127.371 314.635 127.533 314.768C127.695 314.902 127.957 315.011 128.317 315.097L129.357 315.335C129.96 315.474 130.408 315.689 130.704 315.979C130.999 316.268 131.147 316.645 131.147 317.108C131.147 317.5 131.033 317.849 130.806 318.156C130.582 318.46 130.268 318.699 129.864 318.872C129.464 319.045 128.999 319.132 128.471 319.132C127.738 319.132 127.14 318.976 126.677 318.663C126.214 318.348 125.93 317.901 125.825 317.321L127.056 317.134C127.133 317.455 127.29 317.697 127.529 317.862C127.768 318.024 128.079 318.105 128.462 318.105C128.88 318.105 129.214 318.018 129.464 317.845C129.714 317.669 129.839 317.455 129.839 317.202C129.839 316.997 129.762 316.825 129.609 316.686C129.458 316.547 129.227 316.442 128.914 316.371L127.806 316.128C127.195 315.989 126.744 315.767 126.451 315.463C126.161 315.159 126.016 314.774 126.016 314.308C126.016 313.922 126.124 313.584 126.34 313.294C126.556 313.004 126.854 312.778 127.235 312.616C127.616 312.452 128.052 312.369 128.543 312.369C129.251 312.369 129.808 312.523 130.214 312.83C130.62 313.134 130.888 313.541 131.019 314.053ZM135.603 312.455V313.477H132.028V312.455H135.603ZM132.987 310.886H134.261V317.078C134.261 317.325 134.298 317.511 134.372 317.636C134.446 317.759 134.541 317.842 134.657 317.888C134.777 317.93 134.906 317.952 135.045 317.952C135.147 317.952 135.237 317.945 135.314 317.93C135.39 317.916 135.45 317.905 135.493 317.896L135.723 318.949C135.649 318.977 135.544 319.006 135.407 319.034C135.271 319.065 135.1 319.082 134.896 319.085C134.561 319.091 134.248 319.031 133.958 318.906C133.669 318.781 133.434 318.588 133.255 318.327C133.076 318.065 132.987 317.737 132.987 317.342V310.886ZM141.812 314.053L140.657 314.257C140.609 314.109 140.532 313.969 140.427 313.835C140.325 313.702 140.186 313.592 140.01 313.507C139.833 313.422 139.613 313.379 139.349 313.379C138.988 313.379 138.687 313.46 138.446 313.622C138.204 313.781 138.083 313.987 138.083 314.24C138.083 314.459 138.164 314.635 138.326 314.768C138.488 314.902 138.75 315.011 139.11 315.097L140.15 315.335C140.752 315.474 141.201 315.689 141.497 315.979C141.792 316.268 141.94 316.645 141.94 317.108C141.94 317.5 141.826 317.849 141.599 318.156C141.375 318.46 141.061 318.699 140.657 318.872C140.257 319.045 139.792 319.132 139.264 319.132C138.531 319.132 137.933 318.976 137.47 318.663C137.007 318.348 136.723 317.901 136.618 317.321L137.849 317.134C137.926 317.455 138.083 317.697 138.322 317.862C138.561 318.024 138.872 318.105 139.255 318.105C139.673 318.105 140.007 318.018 140.257 317.845C140.507 317.669 140.632 317.455 140.632 317.202C140.632 316.997 140.555 316.825 140.402 316.686C140.251 316.547 140.02 316.442 139.707 316.371L138.599 316.128C137.988 315.989 137.537 315.767 137.244 315.463C136.954 315.159 136.809 314.774 136.809 314.308C136.809 313.922 136.917 313.584 137.133 313.294C137.349 313.004 137.647 312.778 138.028 312.616C138.409 312.452 138.845 312.369 139.336 312.369C140.044 312.369 140.6 312.523 141.007 312.83C141.413 313.134 141.681 313.541 141.812 314.053Z" fill="#101828"/>
<path opacity="0.2" d="M120 217C120 219.373 119.296 221.693 117.978 223.667C116.659 225.64 114.785 227.178 112.592 228.087C110.399 228.995 107.987 229.232 105.659 228.769C103.331 228.306 101.193 227.164 99.5147 225.485C97.8365 223.807 96.6936 221.669 96.2306 219.341C95.7676 217.013 96.0052 214.601 96.9135 212.408C97.8217 210.215 99.3598 208.341 101.333 207.022C103.307 205.704 105.627 205 108 205C111.183 205 114.235 206.264 116.485 208.515C118.736 210.765 120 213.817 120 217Z" fill="#004EEB"/>
<path d="M108 204C105.429 204 102.915 204.762 100.778 206.191C98.6398 207.619 96.9735 209.65 95.9896 212.025C95.0056 214.401 94.7482 217.014 95.2498 219.536C95.7514 222.058 96.9895 224.374 98.8076 226.192C100.626 228.01 102.942 229.249 105.464 229.75C107.986 230.252 110.599 229.994 112.975 229.01C115.35 228.026 117.381 226.36 118.809 224.222C120.238 222.085 121 219.571 121 217C120.996 213.553 119.626 210.249 117.188 207.812C114.751 205.374 111.447 204.004 108 204ZM108 228C105.824 228 103.698 227.355 101.889 226.146C100.08 224.937 98.6699 223.22 97.8373 221.21C97.0048 219.2 96.7869 216.988 97.2114 214.854C97.6358 212.72 98.6835 210.76 100.222 209.222C101.76 207.683 103.72 206.636 105.854 206.211C107.988 205.787 110.2 206.005 112.21 206.837C114.22 207.67 115.937 209.08 117.146 210.889C118.355 212.698 119 214.824 119 217C118.997 219.916 117.837 222.712 115.775 224.775C113.712 226.837 110.916 227.997 108 228ZM102 214.5C102 214.203 102.088 213.913 102.253 213.667C102.418 213.42 102.652 213.228 102.926 213.114C103.2 213.001 103.502 212.971 103.793 213.029C104.084 213.087 104.351 213.23 104.561 213.439C104.77 213.649 104.913 213.916 104.971 214.207C105.029 214.498 104.999 214.8 104.886 215.074C104.772 215.348 104.58 215.582 104.333 215.747C104.087 215.912 103.797 216 103.5 216C103.102 216 102.721 215.842 102.439 215.561C102.158 215.279 102 214.898 102 214.5ZM114 214.5C114 214.797 113.912 215.087 113.747 215.333C113.582 215.58 113.348 215.772 113.074 215.886C112.8 215.999 112.498 216.029 112.207 215.971C111.916 215.913 111.649 215.77 111.439 215.561C111.23 215.351 111.087 215.084 111.029 214.793C110.971 214.502 111.001 214.2 111.114 213.926C111.228 213.652 111.42 213.418 111.667 213.253C111.913 213.088 112.203 213 112.5 213C112.898 213 113.279 213.158 113.561 213.439C113.842 213.721 114 214.102 114 214.5ZM113.865 220.5C112.579 222.724 110.441 224 108 224C105.559 224 103.421 222.725 102.135 220.5C102.063 220.386 102.014 220.259 101.992 220.126C101.97 219.993 101.976 219.857 102.008 219.726C102.04 219.595 102.098 219.471 102.179 219.364C102.26 219.256 102.362 219.165 102.478 219.098C102.595 219.03 102.724 218.987 102.858 218.971C102.992 218.955 103.128 218.966 103.258 219.003C103.387 219.041 103.508 219.104 103.612 219.189C103.716 219.275 103.802 219.38 103.865 219.5C104.799 221.114 106.266 222 108 222C109.734 222 111.201 221.112 112.135 219.5C112.198 219.38 112.284 219.275 112.388 219.189C112.492 219.104 112.613 219.041 112.742 219.003C112.872 218.966 113.008 218.955 113.142 218.971C113.276 218.987 113.405 219.03 113.522 219.098C113.638 219.165 113.74 219.256 113.821 219.364C113.902 219.471 113.96 219.595 113.992 219.726C114.024 219.857 114.03 219.993 114.008 220.126C113.986 220.259 113.937 220.386 113.865 220.5Z" fill="#004EEB"/>
<rect x="80.5" y="189.5" width="175" height="183" rx="7.5" stroke="#155EEF"/>
</g>
<defs>
<filter id="filter0_dd_773_7147" x="274" y="114" width="260" height="76" filterUnits="userSpaceOnUse" color-interpolation-filters="sRGB">
<feFlood flood-opacity="0" result="BackgroundImageFix"/>
<feColorMatrix in="SourceAlpha" type="matrix" values="0 0 0 0 0 0 0 0 0 0 0 0 0 0 0 0 0 0 127 0" result="hardAlpha"/>
<feMorphology radius="2" operator="erode" in="SourceAlpha" result="effect1_dropShadow_773_7147"/>
<feOffset dy="2"/>
<feGaussianBlur stdDeviation="2"/>
<feColorMatrix type="matrix" values="0 0 0 0 0.0627451 0 0 0 0 0.0941176 0 0 0 0 0.156863 0 0 0 0.06 0"/>
<feBlend mode="normal" in2="BackgroundImageFix" result="effect1_dropShadow_773_7147"/>
<feColorMatrix in="SourceAlpha" type="matrix" values="0 0 0 0 0 0 0 0 0 0 0 0 0 0 0 0 0 0 127 0" result="hardAlpha"/>
<feMorphology radius="2" operator="erode" in="SourceAlpha" result="effect2_dropShadow_773_7147"/>
<feOffset dy="4"/>
<feGaussianBlur stdDeviation="4"/>
<feColorMatrix type="matrix" values="0 0 0 0 0.0627451 0 0 0 0 0.0941176 0 0 0 0 0.156863 0 0 0 0.1 0"/>
<feBlend mode="normal" in2="effect1_dropShadow_773_7147" result="effect2_dropShadow_773_7147"/>
<feBlend mode="normal" in="SourceGraphic" in2="effect2_dropShadow_773_7147" result="shape"/>
</filter>
<filter id="filter1_dd_773_7147" x="274" y="190" width="260" height="76" filterUnits="userSpaceOnUse" color-interpolation-filters="sRGB">
<feFlood flood-opacity="0" result="BackgroundImageFix"/>
<feColorMatrix in="SourceAlpha" type="matrix" values="0 0 0 0 0 0 0 0 0 0 0 0 0 0 0 0 0 0 127 0" result="hardAlpha"/>
<feMorphology radius="2" operator="erode" in="SourceAlpha" result="effect1_dropShadow_773_7147"/>
<feOffset dy="2"/>
<feGaussianBlur stdDeviation="2"/>
<feColorMatrix type="matrix" values="0 0 0 0 0.0627451 0 0 0 0 0.0941176 0 0 0 0 0.156863 0 0 0 0.06 0"/>
<feBlend mode="normal" in2="BackgroundImageFix" result="effect1_dropShadow_773_7147"/>
<feColorMatrix in="SourceAlpha" type="matrix" values="0 0 0 0 0 0 0 0 0 0 0 0 0 0 0 0 0 0 127 0" result="hardAlpha"/>
<feMorphology radius="2" operator="erode" in="SourceAlpha" result="effect2_dropShadow_773_7147"/>
<feOffset dy="4"/>
<feGaussianBlur stdDeviation="4"/>
<feColorMatrix type="matrix" values="0 0 0 0 0.0627451 0 0 0 0 0.0941176 0 0 0 0 0.156863 0 0 0 0.1 0"/>
<feBlend mode="normal" in2="effect1_dropShadow_773_7147" result="effect2_dropShadow_773_7147"/>
<feBlend mode="normal" in="SourceGraphic" in2="effect2_dropShadow_773_7147" result="shape"/>
</filter>
<filter id="filter2_dd_773_7147" x="274" y="266" width="260" height="76" filterUnits="userSpaceOnUse" color-interpolation-filters="sRGB">
<feFlood flood-opacity="0" result="BackgroundImageFix"/>
<feColorMatrix in="SourceAlpha" type="matrix" values="0 0 0 0 0 0 0 0 0 0 0 0 0 0 0 0 0 0 127 0" result="hardAlpha"/>
<feMorphology radius="2" operator="erode" in="SourceAlpha" result="effect1_dropShadow_773_7147"/>
<feOffset dy="2"/>
<feGaussianBlur stdDeviation="2"/>
<feColorMatrix type="matrix" values="0 0 0 0 0.0627451 0 0 0 0 0.0941176 0 0 0 0 0.156863 0 0 0 0.06 0"/>
<feBlend mode="normal" in2="BackgroundImageFix" result="effect1_dropShadow_773_7147"/>
<feColorMatrix in="SourceAlpha" type="matrix" values="0 0 0 0 0 0 0 0 0 0 0 0 0 0 0 0 0 0 127 0" result="hardAlpha"/>
<feMorphology radius="2" operator="erode" in="SourceAlpha" result="effect2_dropShadow_773_7147"/>
<feOffset dy="4"/>
<feGaussianBlur stdDeviation="4"/>
<feColorMatrix type="matrix" values="0 0 0 0 0.0627451 0 0 0 0 0.0941176 0 0 0 0 0.156863 0 0 0 0.1 0"/>
<feBlend mode="normal" in2="effect1_dropShadow_773_7147" result="effect2_dropShadow_773_7147"/>
<feBlend mode="normal" in="SourceGraphic" in2="effect2_dropShadow_773_7147" result="shape"/>
</filter>
<filter id="filter3_dd_773_7147" x="274" y="342" width="260" height="76" filterUnits="userSpaceOnUse" color-interpolation-filters="sRGB">
<feFlood flood-opacity="0" result="BackgroundImageFix"/>
<feColorMatrix in="SourceAlpha" type="matrix" values="0 0 0 0 0 0 0 0 0 0 0 0 0 0 0 0 0 0 127 0" result="hardAlpha"/>
<feMorphology radius="2" operator="erode" in="SourceAlpha" result="effect1_dropShadow_773_7147"/>
<feOffset dy="2"/>
<feGaussianBlur stdDeviation="2"/>
<feColorMatrix type="matrix" values="0 0 0 0 0.0627451 0 0 0 0 0.0941176 0 0 0 0 0.156863 0 0 0 0.06 0"/>
<feBlend mode="normal" in2="BackgroundImageFix" result="effect1_dropShadow_773_7147"/>
<feColorMatrix in="SourceAlpha" type="matrix" values="0 0 0 0 0 0 0 0 0 0 0 0 0 0 0 0 0 0 127 0" result="hardAlpha"/>
<feMorphology radius="2" operator="erode" in="SourceAlpha" result="effect2_dropShadow_773_7147"/>
<feOffset dy="4"/>
<feGaussianBlur stdDeviation="4"/>
<feColorMatrix type="matrix" values="0 0 0 0 0.0627451 0 0 0 0 0.0941176 0 0 0 0 0.156863 0 0 0 0.1 0"/>
<feBlend mode="normal" in2="effect1_dropShadow_773_7147" result="effect2_dropShadow_773_7147"/>
<feBlend mode="normal" in="SourceGraphic" in2="effect2_dropShadow_773_7147" result="shape"/>
</filter>
<filter id="filter4_dd_773_7147" x="274" y="418" width="260" height="76" filterUnits="userSpaceOnUse" color-interpolation-filters="sRGB">
<feFlood flood-opacity="0" result="BackgroundImageFix"/>
<feColorMatrix in="SourceAlpha" type="matrix" values="0 0 0 0 0 0 0 0 0 0 0 0 0 0 0 0 0 0 127 0" result="hardAlpha"/>
<feMorphology radius="2" operator="erode" in="SourceAlpha" result="effect1_dropShadow_773_7147"/>
<feOffset dy="2"/>
<feGaussianBlur stdDeviation="2"/>
<feColorMatrix type="matrix" values="0 0 0 0 0.0627451 0 0 0 0 0.0941176 0 0 0 0 0.156863 0 0 0 0.06 0"/>
<feBlend mode="normal" in2="BackgroundImageFix" result="effect1_dropShadow_773_7147"/>
<feColorMatrix in="SourceAlpha" type="matrix" values="0 0 0 0 0 0 0 0 0 0 0 0 0 0 0 0 0 0 127 0" result="hardAlpha"/>
<feMorphology radius="2" operator="erode" in="SourceAlpha" result="effect2_dropShadow_773_7147"/>
<feOffset dy="4"/>
<feGaussianBlur stdDeviation="4"/>
<feColorMatrix type="matrix" values="0 0 0 0 0.0627451 0 0 0 0 0.0941176 0 0 0 0 0.156863 0 0 0 0.1 0"/>
<feBlend mode="normal" in2="effect1_dropShadow_773_7147" result="effect2_dropShadow_773_7147"/>
<feBlend mode="normal" in="SourceGraphic" in2="effect2_dropShadow_773_7147" result="shape"/>
</filter>
<filter id="filter5_dd_773_7147" x="74" y="187" width="188" height="196" filterUnits="userSpaceOnUse" color-interpolation-filters="sRGB">
<feFlood flood-opacity="0" result="BackgroundImageFix"/>
<feColorMatrix in="SourceAlpha" type="matrix" values="0 0 0 0 0 0 0 0 0 0 0 0 0 0 0 0 0 0 127 0" result="hardAlpha"/>
<feMorphology radius="2" operator="erode" in="SourceAlpha" result="effect1_dropShadow_773_7147"/>
<feOffset dy="2"/>
<feGaussianBlur stdDeviation="2"/>
<feColorMatrix type="matrix" values="0 0 0 0 0.0627451 0 0 0 0 0.0941176 0 0 0 0 0.156863 0 0 0 0.06 0"/>
<feBlend mode="normal" in2="BackgroundImageFix" result="effect1_dropShadow_773_7147"/>
<feColorMatrix in="SourceAlpha" type="matrix" values="0 0 0 0 0 0 0 0 0 0 0 0 0 0 0 0 0 0 127 0" result="hardAlpha"/>
<feMorphology radius="2" operator="erode" in="SourceAlpha" result="effect2_dropShadow_773_7147"/>
<feOffset dy="4"/>
<feGaussianBlur stdDeviation="4"/>
<feColorMatrix type="matrix" values="0 0 0 0 0.0627451 0 0 0 0 0.0941176 0 0 0 0 0.156863 0 0 0 0.1 0"/>
<feBlend mode="normal" in2="effect1_dropShadow_773_7147" result="effect2_dropShadow_773_7147"/>
<feBlend mode="normal" in="SourceGraphic" in2="effect2_dropShadow_773_7147" result="shape"/>
</filter>
</defs>
</svg>
