<svg width="600" height="600" viewBox="0 0 600 600" fill="none" xmlns="http://www.w3.org/2000/svg">
<rect x="43.5" y="154.5" width="513" height="291" rx="24.5" fill="#EFF4FF"/>
<rect x="43.5" y="154.5" width="513" height="291" rx="24.5" stroke="#B2CCFF"/>
<g filter="url(#filter0_dd_773_7329)">
<rect x="225" y="316" width="287" height="64" rx="12" fill="white"/>
<rect x="240" y="328" width="40" height="40" rx="8" fill="#EFF4FF"/>
<path d="M256.566 356H253.754L258.874 341.455H262.127L267.255 356H264.443L260.558 344.438H260.444L256.566 356ZM256.659 350.297H264.329V352.413H256.659V350.297Z" fill="#004EEB"/>
<rect x="290" y="328" width="180" height="6" rx="2" fill="#EAECF0"/>
<rect x="290" y="343" width="196" height="6" rx="2" fill="#EAECF0"/>
<rect x="290" y="358" width="103" height="6" rx="2" fill="#EAECF0"/>
<rect x="225.5" y="316.5" width="286" height="63" rx="11.5" stroke="#B2CCFF"/>
</g>
<g filter="url(#filter1_dd_773_7329)">
<rect x="225" y="396" width="287" height="97" rx="12" fill="#155EEF"/>
<rect x="240" y="408" width="40" height="40" rx="8" fill="white"/>
<path d="M254.862 436V421.455H260.431C261.482 421.455 262.355 421.62 263.051 421.952C263.752 422.278 264.275 422.726 264.621 423.294C264.971 423.862 265.146 424.506 265.146 425.226C265.146 425.818 265.033 426.324 264.806 426.746C264.578 427.162 264.273 427.501 263.889 427.761C263.506 428.022 263.077 428.209 262.604 428.322V428.464C263.12 428.493 263.615 428.652 264.088 428.94C264.566 429.224 264.957 429.627 265.26 430.148C265.563 430.669 265.715 431.298 265.715 432.037C265.715 432.79 265.532 433.467 265.168 434.068C264.803 434.665 264.254 435.136 263.52 435.482C262.786 435.827 261.863 436 260.75 436H254.862ZM257.497 433.798H260.331C261.288 433.798 261.977 433.616 262.398 433.251C262.824 432.882 263.037 432.409 263.037 431.831C263.037 431.4 262.931 431.012 262.718 430.666C262.504 430.316 262.201 430.041 261.808 429.842C261.415 429.639 260.947 429.537 260.402 429.537H257.497V433.798ZM257.497 427.641H260.104C260.558 427.641 260.968 427.558 261.333 427.392C261.697 427.222 261.984 426.982 262.192 426.675C262.405 426.362 262.512 425.993 262.512 425.567C262.512 425.003 262.313 424.539 261.915 424.175C261.522 423.81 260.937 423.628 260.161 423.628H257.497V427.641Z" fill="#004EEB"/>
<path d="M291.278 427V415.364H293.034V420.42H298.835V415.364H300.597V427H298.835V421.926H293.034V427H291.278ZM306.778 427.176C305.919 427.176 305.178 426.992 304.557 426.625C303.939 426.254 303.462 425.733 303.125 425.062C302.792 424.388 302.625 423.598 302.625 422.693C302.625 421.799 302.792 421.011 303.125 420.33C303.462 419.648 303.932 419.116 304.534 418.733C305.14 418.35 305.848 418.159 306.659 418.159C307.152 418.159 307.629 418.241 308.091 418.403C308.553 418.566 308.968 418.822 309.335 419.17C309.703 419.519 309.992 419.972 310.205 420.528C310.417 421.081 310.523 421.754 310.523 422.545V423.148H303.585V421.875H308.858C308.858 421.428 308.767 421.032 308.585 420.688C308.403 420.339 308.148 420.064 307.818 419.864C307.492 419.663 307.11 419.562 306.67 419.562C306.193 419.562 305.777 419.68 305.42 419.915C305.068 420.146 304.795 420.449 304.602 420.824C304.413 421.195 304.318 421.598 304.318 422.034V423.028C304.318 423.612 304.42 424.108 304.625 424.517C304.833 424.926 305.123 425.239 305.494 425.455C305.866 425.667 306.299 425.773 306.795 425.773C307.117 425.773 307.411 425.727 307.676 425.636C307.941 425.542 308.17 425.402 308.364 425.216C308.557 425.03 308.705 424.801 308.807 424.528L310.415 424.818C310.286 425.292 310.055 425.706 309.722 426.062C309.392 426.415 308.977 426.689 308.477 426.886C307.981 427.08 307.415 427.176 306.778 427.176ZM313.232 430.273C312.978 430.273 312.747 430.252 312.538 430.21C312.33 430.172 312.175 430.131 312.072 430.085L312.482 428.693C312.792 428.777 313.069 428.813 313.311 428.801C313.554 428.79 313.768 428.699 313.953 428.528C314.143 428.358 314.309 428.08 314.453 427.693L314.663 427.114L311.47 418.273H313.288L315.499 425.045H315.589L317.8 418.273H319.624L316.027 428.165C315.86 428.619 315.648 429.004 315.391 429.318C315.133 429.636 314.826 429.875 314.47 430.034C314.114 430.193 313.701 430.273 313.232 430.273ZM323.362 415.364L323.214 423.653H321.641L321.493 415.364H323.362ZM322.43 427.108C322.116 427.108 321.847 426.998 321.624 426.778C321.4 426.555 321.29 426.286 321.294 425.972C321.29 425.661 321.4 425.396 321.624 425.176C321.847 424.953 322.116 424.841 322.43 424.841C322.737 424.841 323.002 424.953 323.226 425.176C323.449 425.396 323.563 425.661 323.567 425.972C323.563 426.18 323.508 426.371 323.402 426.545C323.3 426.716 323.163 426.852 322.993 426.955C322.822 427.057 322.635 427.108 322.43 427.108ZM329.72 416.875V415.364H338.726V416.875H335.095V427H333.345V416.875H329.72ZM342.278 421.818V427H340.58V415.364H342.256V419.693H342.364C342.568 419.223 342.881 418.85 343.301 418.574C343.722 418.297 344.271 418.159 344.949 418.159C345.547 418.159 346.07 418.282 346.517 418.528C346.968 418.775 347.316 419.142 347.562 419.631C347.812 420.116 347.938 420.722 347.938 421.449V427H346.239V421.653C346.239 421.013 346.074 420.517 345.744 420.165C345.415 419.809 344.956 419.631 344.369 419.631C343.968 419.631 343.608 419.716 343.29 419.886C342.975 420.057 342.727 420.307 342.545 420.636C342.367 420.962 342.278 421.356 342.278 421.818ZM352.744 427.193C352.191 427.193 351.691 427.091 351.244 426.886C350.797 426.678 350.443 426.377 350.182 425.983C349.924 425.589 349.795 425.106 349.795 424.534C349.795 424.042 349.89 423.636 350.08 423.318C350.269 423 350.525 422.748 350.847 422.562C351.169 422.377 351.528 422.237 351.926 422.142C352.324 422.047 352.729 421.975 353.142 421.926C353.665 421.866 354.089 421.816 354.415 421.778C354.741 421.737 354.977 421.67 355.125 421.58C355.273 421.489 355.347 421.341 355.347 421.136V421.097C355.347 420.6 355.206 420.216 354.926 419.943C354.65 419.67 354.237 419.534 353.688 419.534C353.116 419.534 352.665 419.661 352.335 419.915C352.009 420.165 351.784 420.443 351.659 420.75L350.062 420.386C350.252 419.856 350.528 419.428 350.892 419.102C351.259 418.773 351.682 418.534 352.159 418.386C352.636 418.235 353.138 418.159 353.665 418.159C354.013 418.159 354.383 418.201 354.773 418.284C355.167 418.364 355.534 418.511 355.875 418.727C356.22 418.943 356.502 419.252 356.722 419.653C356.941 420.051 357.051 420.568 357.051 421.205V427H355.392V425.807H355.324C355.214 426.027 355.049 426.242 354.83 426.455C354.61 426.667 354.328 426.843 353.983 426.983C353.638 427.123 353.225 427.193 352.744 427.193ZM353.114 425.83C353.583 425.83 353.985 425.737 354.318 425.551C354.655 425.366 354.911 425.123 355.085 424.824C355.263 424.521 355.352 424.197 355.352 423.852V422.727C355.292 422.788 355.174 422.845 355 422.898C354.83 422.947 354.634 422.991 354.415 423.028C354.195 423.062 353.981 423.095 353.773 423.125C353.564 423.152 353.39 423.174 353.25 423.193C352.92 423.235 352.619 423.305 352.347 423.403C352.078 423.502 351.862 423.644 351.699 423.83C351.54 424.011 351.46 424.254 351.46 424.557C351.46 424.977 351.616 425.295 351.926 425.511C352.237 425.723 352.633 425.83 353.114 425.83ZM361.013 421.818V427H359.314V418.273H360.945V419.693H361.053C361.253 419.231 361.568 418.86 361.996 418.58C362.428 418.299 362.971 418.159 363.626 418.159C364.221 418.159 364.742 418.284 365.189 418.534C365.636 418.78 365.982 419.148 366.229 419.636C366.475 420.125 366.598 420.729 366.598 421.449V427H364.899V421.653C364.899 421.021 364.734 420.527 364.405 420.17C364.075 419.811 363.623 419.631 363.047 419.631C362.653 419.631 362.303 419.716 361.996 419.886C361.693 420.057 361.452 420.307 361.274 420.636C361.1 420.962 361.013 421.356 361.013 421.818ZM370.439 424.04L370.428 421.966H370.723L374.2 418.273H376.234L372.268 422.477H372.001L370.439 424.04ZM368.876 427V415.364H370.575V427H368.876ZM374.388 427L371.263 422.852L372.433 421.665L376.473 427H374.388ZM384.322 420.403L382.783 420.676C382.718 420.479 382.616 420.292 382.476 420.114C382.339 419.936 382.154 419.79 381.919 419.676C381.684 419.562 381.391 419.506 381.038 419.506C380.557 419.506 380.156 419.614 379.834 419.83C379.512 420.042 379.351 420.316 379.351 420.653C379.351 420.945 379.459 421.18 379.675 421.358C379.891 421.536 380.239 421.682 380.72 421.795L382.107 422.114C382.91 422.299 383.508 422.585 383.902 422.972C384.296 423.358 384.493 423.86 384.493 424.477C384.493 425 384.341 425.466 384.038 425.875C383.739 426.28 383.321 426.598 382.783 426.83C382.249 427.061 381.629 427.176 380.925 427.176C379.947 427.176 379.15 426.968 378.533 426.551C377.915 426.131 377.536 425.534 377.396 424.761L379.038 424.511C379.141 424.939 379.351 425.263 379.669 425.483C379.987 425.699 380.402 425.807 380.913 425.807C381.47 425.807 381.915 425.691 382.249 425.46C382.582 425.225 382.749 424.939 382.749 424.602C382.749 424.33 382.646 424.1 382.442 423.915C382.241 423.729 381.932 423.589 381.516 423.494L380.038 423.17C379.224 422.985 378.622 422.689 378.232 422.284C377.845 421.879 377.652 421.366 377.652 420.744C377.652 420.229 377.796 419.778 378.084 419.392C378.372 419.006 378.769 418.705 379.277 418.489C379.785 418.269 380.366 418.159 381.021 418.159C381.964 418.159 382.707 418.364 383.249 418.773C383.79 419.178 384.148 419.722 384.322 420.403ZM394.749 418.273V419.636H389.817V418.273H394.749ZM391.169 427V417.261C391.169 416.716 391.288 416.263 391.527 415.903C391.766 415.54 392.082 415.269 392.476 415.091C392.87 414.909 393.298 414.818 393.76 414.818C394.101 414.818 394.393 414.847 394.635 414.903C394.877 414.956 395.057 415.006 395.175 415.051L394.777 416.426C394.697 416.403 394.595 416.377 394.47 416.347C394.345 416.312 394.194 416.295 394.016 416.295C393.603 416.295 393.307 416.398 393.129 416.602C392.955 416.807 392.868 417.102 392.868 417.489V427H391.169ZM399.834 427.176C399.016 427.176 398.302 426.989 397.692 426.614C397.082 426.239 396.608 425.714 396.271 425.04C395.934 424.366 395.766 423.578 395.766 422.676C395.766 421.771 395.934 420.979 396.271 420.301C396.608 419.623 397.082 419.097 397.692 418.722C398.302 418.347 399.016 418.159 399.834 418.159C400.652 418.159 401.366 418.347 401.976 418.722C402.586 419.097 403.059 419.623 403.396 420.301C403.733 420.979 403.902 421.771 403.902 422.676C403.902 423.578 403.733 424.366 403.396 425.04C403.059 425.714 402.586 426.239 401.976 426.614C401.366 426.989 400.652 427.176 399.834 427.176ZM399.839 425.75C400.37 425.75 400.809 425.61 401.158 425.33C401.506 425.049 401.764 424.676 401.93 424.21C402.101 423.744 402.186 423.231 402.186 422.67C402.186 422.114 402.101 421.602 401.93 421.136C401.764 420.667 401.506 420.29 401.158 420.006C400.809 419.722 400.37 419.58 399.839 419.58C399.305 419.58 398.862 419.722 398.51 420.006C398.161 420.29 397.902 420.667 397.732 421.136C397.565 421.602 397.482 422.114 397.482 422.67C397.482 423.231 397.565 423.744 397.732 424.21C397.902 424.676 398.161 425.049 398.51 425.33C398.862 425.61 399.305 425.75 399.839 425.75ZM405.798 427V418.273H407.44V419.659H407.531C407.69 419.189 407.971 418.82 408.372 418.551C408.777 418.278 409.236 418.142 409.747 418.142C409.853 418.142 409.978 418.146 410.122 418.153C410.27 418.161 410.385 418.17 410.469 418.182V419.807C410.401 419.788 410.279 419.767 410.105 419.744C409.931 419.718 409.757 419.705 409.582 419.705C409.181 419.705 408.823 419.79 408.509 419.96C408.198 420.127 407.952 420.36 407.77 420.659C407.588 420.955 407.497 421.292 407.497 421.67V427H405.798ZM419.849 427.176C419.005 427.176 418.277 426.985 417.668 426.602C417.062 426.216 416.596 425.684 416.27 425.006C415.944 424.328 415.781 423.551 415.781 422.676C415.781 421.79 415.948 421.008 416.281 420.33C416.615 419.648 417.084 419.116 417.69 418.733C418.296 418.35 419.01 418.159 419.832 418.159C420.495 418.159 421.086 418.282 421.605 418.528C422.124 418.771 422.543 419.112 422.861 419.551C423.183 419.991 423.374 420.504 423.435 421.091H421.781C421.69 420.682 421.482 420.33 421.156 420.034C420.834 419.739 420.402 419.591 419.861 419.591C419.387 419.591 418.973 419.716 418.616 419.966C418.264 420.212 417.99 420.564 417.793 421.023C417.596 421.477 417.497 422.015 417.497 422.636C417.497 423.273 417.594 423.822 417.787 424.284C417.98 424.746 418.253 425.104 418.605 425.358C418.961 425.612 419.38 425.739 419.861 425.739C420.183 425.739 420.474 425.68 420.736 425.562C421.001 425.441 421.223 425.269 421.401 425.045C421.582 424.822 421.709 424.553 421.781 424.239H423.435C423.374 424.803 423.19 425.307 422.884 425.75C422.577 426.193 422.166 426.542 421.651 426.795C421.139 427.049 420.539 427.176 419.849 427.176ZM428.928 427.176C428.109 427.176 427.395 426.989 426.786 426.614C426.176 426.239 425.702 425.714 425.365 425.04C425.028 424.366 424.859 423.578 424.859 422.676C424.859 421.771 425.028 420.979 425.365 420.301C425.702 419.623 426.176 419.097 426.786 418.722C427.395 418.347 428.109 418.159 428.928 418.159C429.746 418.159 430.46 418.347 431.07 418.722C431.679 419.097 432.153 419.623 432.49 420.301C432.827 420.979 432.996 421.771 432.996 422.676C432.996 423.578 432.827 424.366 432.49 425.04C432.153 425.714 431.679 426.239 431.07 426.614C430.46 426.989 429.746 427.176 428.928 427.176ZM428.933 425.75C429.464 425.75 429.903 425.61 430.251 425.33C430.6 425.049 430.857 424.676 431.024 424.21C431.195 423.744 431.28 423.231 431.28 422.67C431.28 422.114 431.195 421.602 431.024 421.136C430.857 420.667 430.6 420.29 430.251 420.006C429.903 419.722 429.464 419.58 428.933 419.58C428.399 419.58 427.956 419.722 427.604 420.006C427.255 420.29 426.996 420.667 426.825 421.136C426.659 421.602 426.575 422.114 426.575 422.67C426.575 423.231 426.659 423.744 426.825 424.21C426.996 424.676 427.255 425.049 427.604 425.33C427.956 425.61 428.399 425.75 428.933 425.75ZM434.892 427V418.273H436.523V419.693H436.631C436.813 419.212 437.11 418.837 437.523 418.568C437.936 418.295 438.43 418.159 439.006 418.159C439.589 418.159 440.078 418.295 440.472 418.568C440.869 418.841 441.163 419.216 441.352 419.693H441.443C441.652 419.227 441.983 418.856 442.438 418.58C442.892 418.299 443.434 418.159 444.062 418.159C444.854 418.159 445.5 418.407 446 418.903C446.504 419.4 446.756 420.148 446.756 421.148V427H445.057V421.307C445.057 420.716 444.896 420.288 444.574 420.023C444.252 419.758 443.867 419.625 443.42 419.625C442.867 419.625 442.438 419.795 442.131 420.136C441.824 420.473 441.67 420.907 441.67 421.438V427H439.977V421.199C439.977 420.725 439.83 420.345 439.534 420.057C439.239 419.769 438.854 419.625 438.381 419.625C438.059 419.625 437.761 419.71 437.489 419.881C437.22 420.047 437.002 420.28 436.835 420.58C436.672 420.879 436.591 421.225 436.591 421.619V427H434.892ZM449.033 427V418.273H450.732V427H449.033ZM449.891 416.926C449.595 416.926 449.341 416.828 449.129 416.631C448.921 416.43 448.817 416.191 448.817 415.915C448.817 415.634 448.921 415.396 449.129 415.199C449.341 414.998 449.595 414.898 449.891 414.898C450.186 414.898 450.438 414.998 450.646 415.199C450.858 415.396 450.964 415.634 450.964 415.915C450.964 416.191 450.858 416.43 450.646 416.631C450.438 416.828 450.186 416.926 449.891 416.926ZM454.716 421.818V427H453.017V418.273H454.648V419.693H454.756C454.956 419.231 455.271 418.86 455.699 418.58C456.131 418.299 456.674 418.159 457.33 418.159C457.924 418.159 458.445 418.284 458.892 418.534C459.339 418.78 459.686 419.148 459.932 419.636C460.178 420.125 460.301 420.729 460.301 421.449V427H458.602V421.653C458.602 421.021 458.438 420.527 458.108 420.17C457.778 419.811 457.326 419.631 456.75 419.631C456.356 419.631 456.006 419.716 455.699 419.886C455.396 420.057 455.155 420.307 454.977 420.636C454.803 420.962 454.716 421.356 454.716 421.818ZM466.239 430.455C465.545 430.455 464.949 430.364 464.449 430.182C463.953 430 463.547 429.759 463.233 429.46C462.919 429.161 462.684 428.833 462.528 428.477L463.989 427.875C464.091 428.042 464.227 428.218 464.398 428.403C464.572 428.593 464.807 428.754 465.102 428.886C465.402 429.019 465.786 429.085 466.256 429.085C466.9 429.085 467.432 428.928 467.852 428.614C468.273 428.303 468.483 427.807 468.483 427.125V425.409H468.375C468.273 425.595 468.125 425.801 467.932 426.028C467.742 426.256 467.481 426.453 467.148 426.619C466.814 426.786 466.381 426.869 465.847 426.869C465.157 426.869 464.536 426.708 463.983 426.386C463.434 426.061 462.998 425.581 462.676 424.949C462.358 424.312 462.199 423.53 462.199 422.602C462.199 421.674 462.356 420.879 462.67 420.216C462.989 419.553 463.424 419.045 463.977 418.693C464.53 418.337 465.157 418.159 465.858 418.159C466.4 418.159 466.837 418.25 467.17 418.432C467.504 418.61 467.763 418.818 467.949 419.057C468.138 419.295 468.284 419.506 468.386 419.688H468.511V418.273H470.176V427.193C470.176 427.943 470.002 428.559 469.653 429.04C469.305 429.521 468.833 429.877 468.239 430.108C467.648 430.339 466.981 430.455 466.239 430.455ZM466.222 425.46C466.71 425.46 467.123 425.347 467.46 425.119C467.801 424.888 468.059 424.559 468.233 424.131C468.411 423.699 468.5 423.182 468.5 422.58C468.5 421.992 468.413 421.475 468.239 421.028C468.064 420.581 467.809 420.233 467.472 419.983C467.134 419.729 466.718 419.602 466.222 419.602C465.71 419.602 465.284 419.735 464.943 420C464.602 420.261 464.345 420.617 464.17 421.068C464 421.519 463.915 422.023 463.915 422.58C463.915 423.152 464.002 423.653 464.176 424.085C464.35 424.517 464.608 424.854 464.949 425.097C465.294 425.339 465.718 425.46 466.222 425.46ZM480.763 418.273V419.636H475.996V418.273H480.763ZM477.274 416.182H478.973V424.438C478.973 424.767 479.022 425.015 479.121 425.182C479.219 425.345 479.346 425.456 479.501 425.517C479.661 425.574 479.833 425.602 480.018 425.602C480.155 425.602 480.274 425.593 480.376 425.574C480.479 425.555 480.558 425.54 480.615 425.528L480.922 426.932C480.823 426.97 480.683 427.008 480.501 427.045C480.32 427.087 480.092 427.11 479.82 427.114C479.373 427.121 478.956 427.042 478.57 426.875C478.183 426.708 477.871 426.451 477.632 426.102C477.393 425.754 477.274 425.316 477.274 424.79V416.182ZM486.224 427.176C485.406 427.176 484.692 426.989 484.082 426.614C483.473 426.239 482.999 425.714 482.662 425.04C482.325 424.366 482.156 423.578 482.156 422.676C482.156 421.771 482.325 420.979 482.662 420.301C482.999 419.623 483.473 419.097 484.082 418.722C484.692 418.347 485.406 418.159 486.224 418.159C487.043 418.159 487.757 418.347 488.366 418.722C488.976 419.097 489.45 419.623 489.787 420.301C490.124 420.979 490.293 421.771 490.293 422.676C490.293 423.578 490.124 424.366 489.787 425.04C489.45 425.714 488.976 426.239 488.366 426.614C487.757 426.989 487.043 427.176 486.224 427.176ZM486.23 425.75C486.76 425.75 487.2 425.61 487.548 425.33C487.897 425.049 488.154 424.676 488.321 424.21C488.491 423.744 488.577 423.231 488.577 422.67C488.577 422.114 488.491 421.602 488.321 421.136C488.154 420.667 487.897 420.29 487.548 420.006C487.2 419.722 486.76 419.58 486.23 419.58C485.696 419.58 485.253 419.722 484.901 420.006C484.552 420.29 484.293 420.667 484.122 421.136C483.955 421.602 483.872 422.114 483.872 422.67C483.872 423.231 483.955 423.744 484.122 424.21C484.293 424.676 484.552 425.049 484.901 425.33C485.253 425.61 485.696 425.75 486.23 425.75ZM294.818 451.176C294 451.176 293.286 450.989 292.676 450.614C292.066 450.239 291.593 449.714 291.256 449.04C290.919 448.366 290.75 447.578 290.75 446.676C290.75 445.771 290.919 444.979 291.256 444.301C291.593 443.623 292.066 443.097 292.676 442.722C293.286 442.347 294 442.159 294.818 442.159C295.636 442.159 296.35 442.347 296.96 442.722C297.57 443.097 298.044 443.623 298.381 444.301C298.718 444.979 298.886 445.771 298.886 446.676C298.886 447.578 298.718 448.366 298.381 449.04C298.044 449.714 297.57 450.239 296.96 450.614C296.35 450.989 295.636 451.176 294.818 451.176ZM294.824 449.75C295.354 449.75 295.794 449.61 296.142 449.33C296.491 449.049 296.748 448.676 296.915 448.21C297.085 447.744 297.17 447.231 297.17 446.67C297.17 446.114 297.085 445.602 296.915 445.136C296.748 444.667 296.491 444.29 296.142 444.006C295.794 443.722 295.354 443.58 294.824 443.58C294.29 443.58 293.847 443.722 293.494 444.006C293.146 444.29 292.886 444.667 292.716 445.136C292.549 445.602 292.466 446.114 292.466 446.67C292.466 447.231 292.549 447.744 292.716 448.21C292.886 448.676 293.146 449.049 293.494 449.33C293.847 449.61 294.29 449.75 294.824 449.75ZM306.311 447.381V442.273H308.016V451H306.345V449.489H306.254C306.054 449.955 305.732 450.343 305.288 450.653C304.849 450.96 304.302 451.114 303.646 451.114C303.086 451.114 302.589 450.991 302.158 450.744C301.73 450.494 301.393 450.125 301.146 449.636C300.904 449.148 300.783 448.544 300.783 447.824V442.273H302.482V447.619C302.482 448.214 302.646 448.687 302.976 449.04C303.305 449.392 303.733 449.568 304.26 449.568C304.578 449.568 304.894 449.489 305.209 449.33C305.527 449.17 305.79 448.93 305.999 448.608C306.211 448.286 306.315 447.877 306.311 447.381ZM310.298 451V442.273H311.94V443.659H312.031C312.19 443.189 312.471 442.82 312.872 442.551C313.277 442.278 313.736 442.142 314.247 442.142C314.353 442.142 314.478 442.146 314.622 442.153C314.77 442.161 314.885 442.17 314.969 442.182V443.807C314.901 443.788 314.779 443.767 314.605 443.744C314.431 443.718 314.257 443.705 314.082 443.705C313.681 443.705 313.323 443.79 313.009 443.96C312.698 444.127 312.452 444.36 312.27 444.659C312.088 444.955 311.997 445.292 311.997 445.67V451H310.298ZM322.565 451L319.997 442.273H321.753L323.463 448.682H323.548L325.264 442.273H327.02L328.724 448.653H328.81L330.509 442.273H332.264L329.702 451H327.969L326.196 444.699H326.065L324.293 451H322.565ZM337.372 451.176C336.512 451.176 335.772 450.992 335.151 450.625C334.533 450.254 334.056 449.733 333.719 449.062C333.385 448.388 333.219 447.598 333.219 446.693C333.219 445.799 333.385 445.011 333.719 444.33C334.056 443.648 334.526 443.116 335.128 442.733C335.734 442.35 336.442 442.159 337.253 442.159C337.745 442.159 338.223 442.241 338.685 442.403C339.147 442.566 339.562 442.822 339.929 443.17C340.296 443.519 340.586 443.972 340.798 444.528C341.01 445.081 341.116 445.754 341.116 446.545V447.148H334.179V445.875H339.452C339.452 445.428 339.361 445.032 339.179 444.688C338.997 444.339 338.741 444.064 338.412 443.864C338.086 443.663 337.704 443.562 337.264 443.562C336.787 443.562 336.37 443.68 336.014 443.915C335.662 444.146 335.389 444.449 335.196 444.824C335.007 445.195 334.912 445.598 334.912 446.034V447.028C334.912 447.612 335.014 448.108 335.219 448.517C335.427 448.926 335.717 449.239 336.088 449.455C336.459 449.667 336.893 449.773 337.389 449.773C337.711 449.773 338.005 449.727 338.27 449.636C338.535 449.542 338.764 449.402 338.957 449.216C339.151 449.03 339.298 448.801 339.401 448.528L341.009 448.818C340.88 449.292 340.649 449.706 340.315 450.062C339.986 450.415 339.571 450.689 339.071 450.886C338.575 451.08 338.009 451.176 337.372 451.176ZM343.138 451V439.364H344.837V443.688H344.939C345.037 443.506 345.179 443.295 345.365 443.057C345.551 442.818 345.808 442.61 346.138 442.432C346.467 442.25 346.903 442.159 347.445 442.159C348.149 442.159 348.778 442.337 349.331 442.693C349.884 443.049 350.318 443.562 350.632 444.233C350.95 444.903 351.109 445.71 351.109 446.653C351.109 447.597 350.952 448.405 350.638 449.08C350.323 449.75 349.892 450.267 349.342 450.631C348.793 450.991 348.166 451.17 347.462 451.17C346.931 451.17 346.498 451.081 346.161 450.903C345.827 450.725 345.566 450.517 345.376 450.278C345.187 450.04 345.041 449.828 344.939 449.642H344.797V451H343.138ZM344.803 446.636C344.803 447.25 344.892 447.788 345.07 448.25C345.248 448.712 345.505 449.074 345.842 449.335C346.179 449.593 346.592 449.722 347.081 449.722C347.589 449.722 348.013 449.587 348.354 449.318C348.695 449.045 348.952 448.676 349.126 448.21C349.304 447.744 349.393 447.22 349.393 446.636C349.393 446.061 349.306 445.544 349.132 445.085C348.962 444.627 348.704 444.265 348.359 444C348.018 443.735 347.592 443.602 347.081 443.602C346.589 443.602 346.172 443.729 345.831 443.983C345.494 444.237 345.238 444.591 345.064 445.045C344.89 445.5 344.803 446.03 344.803 446.636ZM359.557 444.403L358.017 444.676C357.953 444.479 357.85 444.292 357.71 444.114C357.574 443.936 357.388 443.79 357.153 443.676C356.919 443.562 356.625 443.506 356.273 443.506C355.792 443.506 355.39 443.614 355.068 443.83C354.746 444.042 354.585 444.316 354.585 444.653C354.585 444.945 354.693 445.18 354.909 445.358C355.125 445.536 355.473 445.682 355.955 445.795L357.341 446.114C358.144 446.299 358.742 446.585 359.136 446.972C359.53 447.358 359.727 447.86 359.727 448.477C359.727 449 359.576 449.466 359.273 449.875C358.973 450.28 358.555 450.598 358.017 450.83C357.483 451.061 356.864 451.176 356.159 451.176C355.182 451.176 354.384 450.968 353.767 450.551C353.15 450.131 352.771 449.534 352.631 448.761L354.273 448.511C354.375 448.939 354.585 449.263 354.903 449.483C355.222 449.699 355.636 449.807 356.148 449.807C356.705 449.807 357.15 449.691 357.483 449.46C357.816 449.225 357.983 448.939 357.983 448.602C357.983 448.33 357.881 448.1 357.676 447.915C357.475 447.729 357.167 447.589 356.75 447.494L355.273 447.17C354.458 446.985 353.856 446.689 353.466 446.284C353.08 445.879 352.886 445.366 352.886 444.744C352.886 444.229 353.03 443.778 353.318 443.392C353.606 443.006 354.004 442.705 354.511 442.489C355.019 442.269 355.6 442.159 356.256 442.159C357.199 442.159 357.941 442.364 358.483 442.773C359.025 443.178 359.383 443.722 359.557 444.403ZM361.595 451V442.273H363.294V451H361.595ZM362.453 440.926C362.158 440.926 361.904 440.828 361.692 440.631C361.483 440.43 361.379 440.191 361.379 439.915C361.379 439.634 361.483 439.396 361.692 439.199C361.904 438.998 362.158 438.898 362.453 438.898C362.749 438.898 363 438.998 363.209 439.199C363.421 439.396 363.527 439.634 363.527 439.915C363.527 440.191 363.421 440.43 363.209 440.631C363 440.828 362.749 440.926 362.453 440.926ZM369.653 442.273V443.636H364.886V442.273H369.653ZM366.165 440.182H367.864V448.438C367.864 448.767 367.913 449.015 368.011 449.182C368.11 449.345 368.237 449.456 368.392 449.517C368.551 449.574 368.723 449.602 368.909 449.602C369.045 449.602 369.165 449.593 369.267 449.574C369.369 449.555 369.449 449.54 369.506 449.528L369.812 450.932C369.714 450.97 369.574 451.008 369.392 451.045C369.21 451.087 368.983 451.11 368.71 451.114C368.263 451.121 367.847 451.042 367.46 450.875C367.074 450.708 366.761 450.451 366.523 450.102C366.284 449.754 366.165 449.316 366.165 448.79V440.182ZM375.2 451.176C374.34 451.176 373.6 450.992 372.979 450.625C372.361 450.254 371.884 449.733 371.547 449.062C371.214 448.388 371.047 447.598 371.047 446.693C371.047 445.799 371.214 445.011 371.547 444.33C371.884 443.648 372.354 443.116 372.956 442.733C373.562 442.35 374.27 442.159 375.081 442.159C375.573 442.159 376.051 442.241 376.513 442.403C376.975 442.566 377.39 442.822 377.757 443.17C378.125 443.519 378.414 443.972 378.626 444.528C378.839 445.081 378.945 445.754 378.945 446.545V447.148H372.007V445.875H377.28C377.28 445.428 377.189 445.032 377.007 444.688C376.825 444.339 376.57 444.064 376.24 443.864C375.914 443.663 375.532 443.562 375.092 443.562C374.615 443.562 374.198 443.68 373.842 443.915C373.49 444.146 373.217 444.449 373.024 444.824C372.835 445.195 372.74 445.598 372.74 446.034V447.028C372.74 447.612 372.842 448.108 373.047 448.517C373.255 448.926 373.545 449.239 373.916 449.455C374.287 449.667 374.721 449.773 375.217 449.773C375.539 449.773 375.833 449.727 376.098 449.636C376.363 449.542 376.592 449.402 376.786 449.216C376.979 449.03 377.126 448.801 377.229 448.528L378.837 448.818C378.708 449.292 378.477 449.706 378.143 450.062C377.814 450.415 377.399 450.689 376.899 450.886C376.403 451.08 375.837 451.176 375.2 451.176ZM383.04 449.409L382.955 450.028C382.898 450.483 382.801 450.956 382.665 451.449C382.532 451.945 382.394 452.405 382.25 452.83C382.11 453.254 381.994 453.591 381.903 453.841H380.699C380.748 453.606 380.816 453.288 380.903 452.886C380.991 452.489 381.076 452.044 381.159 451.551C381.242 451.059 381.305 450.557 381.347 450.045L381.403 449.409H383.04ZM393.162 451.176C392.317 451.176 391.59 450.985 390.98 450.602C390.374 450.216 389.908 449.684 389.582 449.006C389.257 448.328 389.094 447.551 389.094 446.676C389.094 445.79 389.26 445.008 389.594 444.33C389.927 443.648 390.397 443.116 391.003 442.733C391.609 442.35 392.323 442.159 393.145 442.159C393.808 442.159 394.399 442.282 394.918 442.528C395.437 442.771 395.855 443.112 396.173 443.551C396.495 443.991 396.687 444.504 396.747 445.091H395.094C395.003 444.682 394.795 444.33 394.469 444.034C394.147 443.739 393.715 443.591 393.173 443.591C392.7 443.591 392.285 443.716 391.929 443.966C391.577 444.212 391.302 444.564 391.105 445.023C390.908 445.477 390.81 446.015 390.81 446.636C390.81 447.273 390.906 447.822 391.099 448.284C391.293 448.746 391.565 449.104 391.918 449.358C392.274 449.612 392.692 449.739 393.173 449.739C393.495 449.739 393.787 449.68 394.048 449.562C394.313 449.441 394.535 449.269 394.713 449.045C394.895 448.822 395.022 448.553 395.094 448.239H396.747C396.687 448.803 396.503 449.307 396.196 449.75C395.889 450.193 395.478 450.542 394.963 450.795C394.452 451.049 393.851 451.176 393.162 451.176ZM401.104 451.193C400.551 451.193 400.051 451.091 399.604 450.886C399.157 450.678 398.803 450.377 398.541 449.983C398.284 449.589 398.155 449.106 398.155 448.534C398.155 448.042 398.25 447.636 398.439 447.318C398.628 447 398.884 446.748 399.206 446.562C399.528 446.377 399.888 446.237 400.286 446.142C400.683 446.047 401.089 445.975 401.501 445.926C402.024 445.866 402.448 445.816 402.774 445.778C403.1 445.737 403.337 445.67 403.484 445.58C403.632 445.489 403.706 445.341 403.706 445.136V445.097C403.706 444.6 403.566 444.216 403.286 443.943C403.009 443.67 402.596 443.534 402.047 443.534C401.475 443.534 401.024 443.661 400.695 443.915C400.369 444.165 400.143 444.443 400.018 444.75L398.422 444.386C398.611 443.856 398.888 443.428 399.251 443.102C399.619 442.773 400.041 442.534 400.518 442.386C400.996 442.235 401.498 442.159 402.024 442.159C402.373 442.159 402.742 442.201 403.132 442.284C403.526 442.364 403.893 442.511 404.234 442.727C404.579 442.943 404.861 443.252 405.081 443.653C405.301 444.051 405.411 444.568 405.411 445.205V451H403.751V449.807H403.683C403.573 450.027 403.409 450.242 403.189 450.455C402.969 450.667 402.687 450.843 402.342 450.983C401.998 451.123 401.585 451.193 401.104 451.193ZM401.473 449.83C401.943 449.83 402.344 449.737 402.678 449.551C403.015 449.366 403.27 449.123 403.445 448.824C403.623 448.521 403.712 448.197 403.712 447.852V446.727C403.651 446.788 403.534 446.845 403.359 446.898C403.189 446.947 402.994 446.991 402.774 447.028C402.554 447.062 402.34 447.095 402.132 447.125C401.924 447.152 401.75 447.174 401.609 447.193C401.28 447.235 400.979 447.305 400.706 447.403C400.437 447.502 400.221 447.644 400.058 447.83C399.899 448.011 399.82 448.254 399.82 448.557C399.82 448.977 399.975 449.295 400.286 449.511C400.596 449.723 400.992 449.83 401.473 449.83ZM409.372 445.818V451H407.673V442.273H409.304V443.693H409.412C409.613 443.231 409.927 442.86 410.355 442.58C410.787 442.299 411.33 442.159 411.986 442.159C412.58 442.159 413.101 442.284 413.548 442.534C413.995 442.78 414.342 443.148 414.588 443.636C414.834 444.125 414.957 444.729 414.957 445.449V451H413.259V445.653C413.259 445.021 413.094 444.527 412.764 444.17C412.435 443.811 411.982 443.631 411.406 443.631C411.012 443.631 410.662 443.716 410.355 443.886C410.052 444.057 409.812 444.307 409.634 444.636C409.459 444.962 409.372 445.356 409.372 445.818ZM423.362 451L420.794 442.273H422.55L424.26 448.682H424.345L426.061 442.273H427.817L429.521 448.653H429.607L431.305 442.273H433.061L430.499 451H428.766L426.993 444.699H426.862L425.089 451H423.362ZM438.169 451.176C437.309 451.176 436.569 450.992 435.947 450.625C435.33 450.254 434.853 449.733 434.516 449.062C434.182 448.388 434.016 447.598 434.016 446.693C434.016 445.799 434.182 445.011 434.516 444.33C434.853 443.648 435.322 443.116 435.925 442.733C436.531 442.35 437.239 442.159 438.05 442.159C438.542 442.159 439.019 442.241 439.482 442.403C439.944 442.566 440.358 442.822 440.726 443.17C441.093 443.519 441.383 443.972 441.595 444.528C441.807 445.081 441.913 445.754 441.913 446.545V447.148H434.976V445.875H440.249C440.249 445.428 440.158 445.032 439.976 444.688C439.794 444.339 439.538 444.064 439.209 443.864C438.883 443.663 438.5 443.562 438.061 443.562C437.584 443.562 437.167 443.68 436.811 443.915C436.459 444.146 436.186 444.449 435.993 444.824C435.804 445.195 435.709 445.598 435.709 446.034V447.028C435.709 447.612 435.811 448.108 436.016 448.517C436.224 448.926 436.514 449.239 436.885 449.455C437.256 449.667 437.69 449.773 438.186 449.773C438.508 449.773 438.802 449.727 439.067 449.636C439.332 449.542 439.561 449.402 439.754 449.216C439.947 449.03 440.095 448.801 440.197 448.528L441.805 448.818C441.677 449.292 441.446 449.706 441.112 450.062C440.783 450.415 440.368 450.689 439.868 450.886C439.372 451.08 438.805 451.176 438.169 451.176ZM449.732 445.818V451H448.033V439.364H449.709V443.693H449.817C450.021 443.223 450.334 442.85 450.754 442.574C451.175 442.297 451.724 442.159 452.402 442.159C453 442.159 453.523 442.282 453.97 442.528C454.421 442.775 454.769 443.142 455.016 443.631C455.266 444.116 455.391 444.722 455.391 445.449V451H453.692V445.653C453.692 445.013 453.527 444.517 453.197 444.165C452.868 443.809 452.41 443.631 451.822 443.631C451.421 443.631 451.061 443.716 450.743 443.886C450.429 444.057 450.18 444.307 449.999 444.636C449.821 444.962 449.732 445.356 449.732 445.818ZM461.419 451.176C460.559 451.176 459.819 450.992 459.197 450.625C458.58 450.254 458.103 449.733 457.766 449.062C457.432 448.388 457.266 447.598 457.266 446.693C457.266 445.799 457.432 445.011 457.766 444.33C458.103 443.648 458.572 443.116 459.175 442.733C459.781 442.35 460.489 442.159 461.3 442.159C461.792 442.159 462.269 442.241 462.732 442.403C463.194 442.566 463.608 442.822 463.976 443.17C464.343 443.519 464.633 443.972 464.845 444.528C465.057 445.081 465.163 445.754 465.163 446.545V447.148H458.226V445.875H463.499C463.499 445.428 463.408 445.032 463.226 444.688C463.044 444.339 462.788 444.064 462.459 443.864C462.133 443.663 461.75 443.562 461.311 443.562C460.834 443.562 460.417 443.68 460.061 443.915C459.709 444.146 459.436 444.449 459.243 444.824C459.054 445.195 458.959 445.598 458.959 446.034V447.028C458.959 447.612 459.061 448.108 459.266 448.517C459.474 448.926 459.764 449.239 460.135 449.455C460.506 449.667 460.94 449.773 461.436 449.773C461.758 449.773 462.052 449.727 462.317 449.636C462.582 449.542 462.811 449.402 463.004 449.216C463.197 449.03 463.345 448.801 463.447 448.528L465.055 448.818C464.927 449.292 464.696 449.706 464.362 450.062C464.033 450.415 463.618 450.689 463.118 450.886C462.622 451.08 462.055 451.176 461.419 451.176ZM468.747 439.364V451H467.048V439.364H468.747ZM471.033 454.273V442.273H472.692V443.688H472.834C472.932 443.506 473.074 443.295 473.26 443.057C473.446 442.818 473.703 442.61 474.033 442.432C474.362 442.25 474.798 442.159 475.339 442.159C476.044 442.159 476.673 442.337 477.226 442.693C477.779 443.049 478.213 443.562 478.527 444.233C478.845 444.903 479.004 445.71 479.004 446.653C479.004 447.597 478.847 448.405 478.533 449.08C478.218 449.75 477.786 450.267 477.237 450.631C476.688 450.991 476.061 451.17 475.357 451.17C474.826 451.17 474.393 451.081 474.055 450.903C473.722 450.725 473.461 450.517 473.271 450.278C473.082 450.04 472.936 449.828 472.834 449.642H472.732V454.273H471.033ZM472.697 446.636C472.697 447.25 472.786 447.788 472.964 448.25C473.143 448.712 473.4 449.074 473.737 449.335C474.074 449.593 474.487 449.722 474.976 449.722C475.483 449.722 475.908 449.587 476.249 449.318C476.589 449.045 476.847 448.676 477.021 448.21C477.199 447.744 477.288 447.22 477.288 446.636C477.288 446.061 477.201 445.544 477.027 445.085C476.857 444.627 476.599 444.265 476.254 444C475.913 443.735 475.487 443.602 474.976 443.602C474.483 443.602 474.067 443.729 473.726 443.983C473.389 444.237 473.133 444.591 472.959 445.045C472.785 445.5 472.697 446.03 472.697 446.636ZM292.216 478.273C291.962 478.273 291.731 478.252 291.523 478.21C291.314 478.172 291.159 478.131 291.057 478.085L291.466 476.693C291.777 476.777 292.053 476.813 292.295 476.801C292.538 476.79 292.752 476.699 292.938 476.528C293.127 476.358 293.294 476.08 293.438 475.693L293.648 475.114L290.455 466.273H292.273L294.483 473.045H294.574L296.784 466.273H298.608L295.011 476.165C294.845 476.619 294.633 477.004 294.375 477.318C294.117 477.636 293.811 477.875 293.455 478.034C293.098 478.193 292.686 478.273 292.216 478.273ZM303.584 475.176C302.766 475.176 302.052 474.989 301.442 474.614C300.832 474.239 300.358 473.714 300.021 473.04C299.684 472.366 299.516 471.578 299.516 470.676C299.516 469.771 299.684 468.979 300.021 468.301C300.358 467.623 300.832 467.097 301.442 466.722C302.052 466.347 302.766 466.159 303.584 466.159C304.402 466.159 305.116 466.347 305.726 466.722C306.336 467.097 306.809 467.623 307.146 468.301C307.483 468.979 307.652 469.771 307.652 470.676C307.652 471.578 307.483 472.366 307.146 473.04C306.809 473.714 306.336 474.239 305.726 474.614C305.116 474.989 304.402 475.176 303.584 475.176ZM303.589 473.75C304.12 473.75 304.559 473.61 304.908 473.33C305.256 473.049 305.514 472.676 305.68 472.21C305.851 471.744 305.936 471.231 305.936 470.67C305.936 470.114 305.851 469.602 305.68 469.136C305.514 468.667 305.256 468.29 304.908 468.006C304.559 467.722 304.12 467.58 303.589 467.58C303.055 467.58 302.612 467.722 302.26 468.006C301.911 468.29 301.652 468.667 301.482 469.136C301.315 469.602 301.232 470.114 301.232 470.67C301.232 471.231 301.315 471.744 301.482 472.21C301.652 472.676 301.911 473.049 302.26 473.33C302.612 473.61 303.055 473.75 303.589 473.75ZM315.077 471.381V466.273H316.781V475H315.111V473.489H315.02C314.819 473.955 314.497 474.343 314.054 474.653C313.615 474.96 313.067 475.114 312.412 475.114C311.851 475.114 311.355 474.991 310.923 474.744C310.495 474.494 310.158 474.125 309.912 473.636C309.67 473.148 309.548 472.544 309.548 471.824V466.273H311.247V471.619C311.247 472.214 311.412 472.687 311.741 473.04C312.071 473.392 312.499 473.568 313.026 473.568C313.344 473.568 313.66 473.489 313.974 473.33C314.293 473.17 314.556 472.93 314.764 472.608C314.976 472.286 315.08 471.877 315.077 471.381ZM327.452 466.273V467.636H322.52V466.273H327.452ZM323.872 475V465.261C323.872 464.716 323.991 464.263 324.23 463.903C324.469 463.54 324.785 463.269 325.179 463.091C325.573 462.909 326.001 462.818 326.463 462.818C326.804 462.818 327.096 462.847 327.338 462.903C327.58 462.956 327.76 463.006 327.878 463.051L327.48 464.426C327.401 464.403 327.298 464.377 327.173 464.347C327.048 464.312 326.897 464.295 326.719 464.295C326.306 464.295 326.01 464.398 325.832 464.602C325.658 464.807 325.571 465.102 325.571 465.489V475H323.872ZM329.205 475V466.273H330.903V475H329.205ZM330.062 464.926C329.767 464.926 329.513 464.828 329.301 464.631C329.093 464.43 328.989 464.191 328.989 463.915C328.989 463.634 329.093 463.396 329.301 463.199C329.513 462.998 329.767 462.898 330.062 462.898C330.358 462.898 330.61 462.998 330.818 463.199C331.03 463.396 331.136 463.634 331.136 463.915C331.136 464.191 331.03 464.43 330.818 464.631C330.61 464.828 330.358 464.926 330.062 464.926ZM334.888 469.818V475H333.189V466.273H334.82V467.693H334.928C335.128 467.231 335.443 466.86 335.871 466.58C336.303 466.299 336.846 466.159 337.501 466.159C338.096 466.159 338.617 466.284 339.064 466.534C339.511 466.78 339.857 467.148 340.104 467.636C340.35 468.125 340.473 468.729 340.473 469.449V475H338.774V469.653C338.774 469.021 338.609 468.527 338.28 468.17C337.95 467.811 337.498 467.631 336.922 467.631C336.528 467.631 336.178 467.716 335.871 467.886C335.568 468.057 335.327 468.307 335.149 468.636C334.975 468.962 334.888 469.356 334.888 469.818ZM346.018 475.17C345.314 475.17 344.685 474.991 344.132 474.631C343.583 474.267 343.151 473.75 342.837 473.08C342.526 472.405 342.371 471.597 342.371 470.653C342.371 469.71 342.528 468.903 342.842 468.233C343.161 467.562 343.596 467.049 344.149 466.693C344.702 466.337 345.329 466.159 346.03 466.159C346.571 466.159 347.007 466.25 347.337 466.432C347.67 466.61 347.928 466.818 348.109 467.057C348.295 467.295 348.439 467.506 348.541 467.688H348.643V463.364H350.342V475H348.683V473.642H348.541C348.439 473.828 348.291 474.04 348.098 474.278C347.909 474.517 347.647 474.725 347.314 474.903C346.981 475.081 346.549 475.17 346.018 475.17ZM346.393 473.722C346.882 473.722 347.295 473.593 347.632 473.335C347.973 473.074 348.231 472.712 348.405 472.25C348.583 471.788 348.672 471.25 348.672 470.636C348.672 470.03 348.585 469.5 348.411 469.045C348.236 468.591 347.981 468.237 347.643 467.983C347.306 467.729 346.89 467.602 346.393 467.602C345.882 467.602 345.456 467.735 345.115 468C344.774 468.265 344.517 468.627 344.342 469.085C344.172 469.544 344.087 470.061 344.087 470.636C344.087 471.22 344.174 471.744 344.348 472.21C344.522 472.676 344.78 473.045 345.121 473.318C345.465 473.587 345.89 473.722 346.393 473.722ZM363.541 468.403L362.001 468.676C361.937 468.479 361.835 468.292 361.695 468.114C361.558 467.936 361.373 467.79 361.138 467.676C360.903 467.562 360.609 467.506 360.257 467.506C359.776 467.506 359.375 467.614 359.053 467.83C358.731 468.042 358.57 468.316 358.57 468.653C358.57 468.945 358.678 469.18 358.893 469.358C359.109 469.536 359.458 469.682 359.939 469.795L361.325 470.114C362.128 470.299 362.727 470.585 363.121 470.972C363.515 471.358 363.712 471.86 363.712 472.477C363.712 473 363.56 473.466 363.257 473.875C362.958 474.28 362.539 474.598 362.001 474.83C361.467 475.061 360.848 475.176 360.143 475.176C359.166 475.176 358.369 474.968 357.751 474.551C357.134 474.131 356.755 473.534 356.615 472.761L358.257 472.511C358.359 472.939 358.57 473.263 358.888 473.483C359.206 473.699 359.621 473.807 360.132 473.807C360.689 473.807 361.134 473.691 361.467 473.46C361.801 473.225 361.967 472.939 361.967 472.602C361.967 472.33 361.865 472.1 361.661 471.915C361.46 471.729 361.151 471.589 360.734 471.494L359.257 471.17C358.443 470.985 357.84 470.689 357.45 470.284C357.064 469.879 356.871 469.366 356.871 468.744C356.871 468.229 357.015 467.778 357.303 467.392C357.59 467.006 357.988 466.705 358.496 466.489C359.003 466.269 359.585 466.159 360.24 466.159C361.183 466.159 361.926 466.364 362.467 466.773C363.009 467.178 363.367 467.722 363.541 468.403ZM369.256 475.176C368.438 475.176 367.723 474.989 367.114 474.614C366.504 474.239 366.03 473.714 365.693 473.04C365.356 472.366 365.188 471.578 365.188 470.676C365.188 469.771 365.356 468.979 365.693 468.301C366.03 467.623 366.504 467.097 367.114 466.722C367.723 466.347 368.438 466.159 369.256 466.159C370.074 466.159 370.788 466.347 371.398 466.722C372.008 467.097 372.481 467.623 372.818 468.301C373.155 468.979 373.324 469.771 373.324 470.676C373.324 471.578 373.155 472.366 372.818 473.04C372.481 473.714 372.008 474.239 371.398 474.614C370.788 474.989 370.074 475.176 369.256 475.176ZM369.261 473.75C369.792 473.75 370.231 473.61 370.58 473.33C370.928 473.049 371.186 472.676 371.352 472.21C371.523 471.744 371.608 471.231 371.608 470.67C371.608 470.114 371.523 469.602 371.352 469.136C371.186 468.667 370.928 468.29 370.58 468.006C370.231 467.722 369.792 467.58 369.261 467.58C368.727 467.58 368.284 467.722 367.932 468.006C367.583 468.29 367.324 468.667 367.153 469.136C366.987 469.602 366.903 470.114 366.903 470.67C366.903 471.231 366.987 471.744 367.153 472.21C367.324 472.676 367.583 473.049 367.932 473.33C368.284 473.61 368.727 473.75 369.261 473.75ZM375.22 475V466.273H376.851V467.693H376.959C377.141 467.212 377.438 466.837 377.851 466.568C378.264 466.295 378.758 466.159 379.334 466.159C379.917 466.159 380.406 466.295 380.8 466.568C381.197 466.841 381.491 467.216 381.68 467.693H381.771C381.98 467.227 382.311 466.856 382.766 466.58C383.22 466.299 383.762 466.159 384.391 466.159C385.182 466.159 385.828 466.407 386.328 466.903C386.832 467.4 387.084 468.148 387.084 469.148V475H385.385V469.307C385.385 468.716 385.224 468.288 384.902 468.023C384.58 467.758 384.196 467.625 383.749 467.625C383.196 467.625 382.766 467.795 382.459 468.136C382.152 468.473 381.999 468.907 381.999 469.438V475H380.305V469.199C380.305 468.725 380.158 468.345 379.862 468.057C379.567 467.769 379.182 467.625 378.709 467.625C378.387 467.625 378.089 467.71 377.817 467.881C377.548 468.047 377.33 468.28 377.163 468.58C377 468.879 376.919 469.225 376.919 469.619V475H375.22ZM393.122 475.176C392.262 475.176 391.522 474.992 390.901 474.625C390.283 474.254 389.806 473.733 389.469 473.062C389.135 472.388 388.969 471.598 388.969 470.693C388.969 469.799 389.135 469.011 389.469 468.33C389.806 467.648 390.276 467.116 390.878 466.733C391.484 466.35 392.192 466.159 393.003 466.159C393.495 466.159 393.973 466.241 394.435 466.403C394.897 466.566 395.312 466.822 395.679 467.17C396.046 467.519 396.336 467.972 396.548 468.528C396.76 469.081 396.866 469.754 396.866 470.545V471.148H389.929V469.875H395.202C395.202 469.428 395.111 469.032 394.929 468.688C394.747 468.339 394.491 468.064 394.162 467.864C393.836 467.663 393.454 467.562 393.014 467.562C392.537 467.562 392.12 467.68 391.764 467.915C391.412 468.146 391.139 468.449 390.946 468.824C390.757 469.195 390.662 469.598 390.662 470.034V471.028C390.662 471.612 390.764 472.108 390.969 472.517C391.177 472.926 391.467 473.239 391.838 473.455C392.209 473.667 392.643 473.773 393.139 473.773C393.461 473.773 393.755 473.727 394.02 473.636C394.285 473.542 394.514 473.402 394.707 473.216C394.901 473.03 395.048 472.801 395.151 472.528L396.759 472.818C396.63 473.292 396.399 473.706 396.065 474.062C395.736 474.415 395.321 474.689 394.821 474.886C394.325 475.08 393.759 475.176 393.122 475.176ZM402.825 466.273V467.636H398.058V466.273H402.825ZM399.337 464.182H401.036V472.438C401.036 472.767 401.085 473.015 401.183 473.182C401.282 473.345 401.409 473.456 401.564 473.517C401.723 473.574 401.895 473.602 402.081 473.602C402.217 473.602 402.337 473.593 402.439 473.574C402.541 473.555 402.621 473.54 402.678 473.528L402.984 474.932C402.886 474.97 402.746 475.008 402.564 475.045C402.382 475.087 402.155 475.11 401.882 475.114C401.435 475.121 401.018 475.042 400.632 474.875C400.246 474.708 399.933 474.451 399.695 474.102C399.456 473.754 399.337 473.316 399.337 472.79V464.182ZM406.591 469.818V475H404.892V463.364H406.568V467.693H406.676C406.881 467.223 407.193 466.85 407.614 466.574C408.034 466.297 408.583 466.159 409.261 466.159C409.86 466.159 410.383 466.282 410.83 466.528C411.28 466.775 411.629 467.142 411.875 467.631C412.125 468.116 412.25 468.722 412.25 469.449V475H410.551V469.653C410.551 469.013 410.386 468.517 410.057 468.165C409.727 467.809 409.269 467.631 408.682 467.631C408.28 467.631 407.92 467.716 407.602 467.886C407.288 468.057 407.04 468.307 406.858 468.636C406.68 468.962 406.591 469.356 406.591 469.818ZM414.517 475V466.273H416.216V475H414.517ZM415.375 464.926C415.08 464.926 414.826 464.828 414.614 464.631C414.405 464.43 414.301 464.191 414.301 463.915C414.301 463.634 414.405 463.396 414.614 463.199C414.826 462.998 415.08 462.898 415.375 462.898C415.67 462.898 415.922 462.998 416.131 463.199C416.343 463.396 416.449 463.634 416.449 463.915C416.449 464.191 416.343 464.43 416.131 464.631C415.922 464.828 415.67 464.926 415.375 464.926ZM420.2 469.818V475H418.501V466.273H420.132V467.693H420.24C420.441 467.231 420.755 466.86 421.183 466.58C421.615 466.299 422.159 466.159 422.814 466.159C423.409 466.159 423.929 466.284 424.376 466.534C424.823 466.78 425.17 467.148 425.416 467.636C425.662 468.125 425.786 468.729 425.786 469.449V475H424.087V469.653C424.087 469.021 423.922 468.527 423.592 468.17C423.263 467.811 422.81 467.631 422.234 467.631C421.84 467.631 421.49 467.716 421.183 467.886C420.88 468.057 420.64 468.307 420.462 468.636C420.287 468.962 420.2 469.356 420.2 469.818ZM431.723 478.455C431.03 478.455 430.433 478.364 429.933 478.182C429.437 478 429.032 477.759 428.717 477.46C428.403 477.161 428.168 476.833 428.013 476.477L429.473 475.875C429.575 476.042 429.712 476.218 429.882 476.403C430.056 476.593 430.291 476.754 430.587 476.886C430.886 477.019 431.27 477.085 431.74 477.085C432.384 477.085 432.916 476.928 433.337 476.614C433.757 476.303 433.967 475.807 433.967 475.125V473.409H433.859C433.757 473.595 433.609 473.801 433.416 474.028C433.227 474.256 432.965 474.453 432.632 474.619C432.299 474.786 431.865 474.869 431.331 474.869C430.642 474.869 430.02 474.708 429.467 474.386C428.918 474.061 428.482 473.581 428.161 472.949C427.842 472.312 427.683 471.53 427.683 470.602C427.683 469.674 427.84 468.879 428.155 468.216C428.473 467.553 428.909 467.045 429.462 466.693C430.015 466.337 430.642 466.159 431.342 466.159C431.884 466.159 432.321 466.25 432.655 466.432C432.988 466.61 433.248 466.818 433.433 467.057C433.623 467.295 433.768 467.506 433.871 467.688H433.996V466.273H435.661V475.193C435.661 475.943 435.486 476.559 435.138 477.04C434.789 477.521 434.318 477.877 433.723 478.108C433.132 478.339 432.465 478.455 431.723 478.455ZM431.706 473.46C432.195 473.46 432.607 473.347 432.945 473.119C433.286 472.888 433.543 472.559 433.717 472.131C433.895 471.699 433.984 471.182 433.984 470.58C433.984 469.992 433.897 469.475 433.723 469.028C433.549 468.581 433.293 468.233 432.956 467.983C432.619 467.729 432.202 467.602 431.706 467.602C431.195 467.602 430.768 467.735 430.428 468C430.087 468.261 429.829 468.617 429.655 469.068C429.484 469.519 429.399 470.023 429.399 470.58C429.399 471.152 429.486 471.653 429.661 472.085C429.835 472.517 430.092 472.854 430.433 473.097C430.778 473.339 431.202 473.46 431.706 473.46ZM439.797 471.653V471.545C439.804 470.841 439.875 470.28 440.007 469.864C440.143 469.447 440.337 469.11 440.587 468.852C440.837 468.595 441.138 468.36 441.49 468.148C441.717 468.004 441.922 467.843 442.104 467.665C442.286 467.487 442.429 467.282 442.536 467.051C442.642 466.82 442.695 466.564 442.695 466.284C442.695 465.947 442.615 465.655 442.456 465.409C442.297 465.163 442.085 464.973 441.82 464.841C441.558 464.705 441.267 464.636 440.945 464.636C440.653 464.636 440.375 464.697 440.109 464.818C439.844 464.939 439.625 465.129 439.45 465.386C439.276 465.64 439.176 465.968 439.149 466.369H437.422C437.448 465.688 437.621 465.112 437.939 464.642C438.257 464.169 438.678 463.811 439.2 463.568C439.727 463.326 440.308 463.205 440.945 463.205C441.642 463.205 442.251 463.335 442.774 463.597C443.297 463.854 443.702 464.216 443.99 464.682C444.282 465.144 444.428 465.684 444.428 466.301C444.428 466.725 444.361 467.108 444.229 467.449C444.096 467.786 443.907 468.087 443.661 468.352C443.418 468.617 443.126 468.852 442.786 469.057C442.464 469.258 442.202 469.466 442.001 469.682C441.804 469.898 441.661 470.153 441.57 470.449C441.479 470.744 441.429 471.11 441.422 471.545V471.653H439.797ZM440.655 475.108C440.344 475.108 440.077 474.998 439.854 474.778C439.63 474.555 439.518 474.286 439.518 473.972C439.518 473.661 439.63 473.396 439.854 473.176C440.077 472.953 440.344 472.841 440.655 472.841C440.962 472.841 441.227 472.953 441.45 473.176C441.678 473.396 441.791 473.661 441.791 473.972C441.791 474.18 441.738 474.371 441.632 474.545C441.53 474.716 441.393 474.852 441.223 474.955C441.053 475.057 440.863 475.108 440.655 475.108Z" fill="white"/>
<rect x="225.5" y="396.5" width="286" height="96" rx="11.5" stroke="#155EEF"/>
</g>
<g filter="url(#filter2_dd_773_7329)">
<rect x="225" y="509" width="287" height="64" rx="12" fill="white"/>
<rect x="240" y="521" width="40" height="40" rx="8" fill="#EFF4FF"/>
<path d="M266.953 539.362H264.297C264.221 538.927 264.082 538.541 263.878 538.205C263.674 537.864 263.421 537.575 263.118 537.338C262.815 537.101 262.469 536.924 262.081 536.805C261.698 536.682 261.283 536.621 260.838 536.621C260.048 536.621 259.347 536.82 258.736 537.217C258.125 537.61 257.647 538.188 257.301 538.95C256.956 539.708 256.783 540.634 256.783 541.727C256.783 542.84 256.956 543.777 257.301 544.54C257.652 545.297 258.13 545.87 258.736 546.259C259.347 546.642 260.045 546.834 260.831 546.834C261.267 546.834 261.674 546.777 262.053 546.663C262.436 546.545 262.78 546.372 263.083 546.145C263.39 545.918 263.648 545.638 263.857 545.307C264.07 544.975 264.217 544.597 264.297 544.17L266.953 544.185C266.854 544.876 266.638 545.525 266.307 546.131C265.98 546.737 265.552 547.272 265.021 547.736C264.491 548.195 263.871 548.555 263.161 548.815C262.45 549.071 261.662 549.199 260.796 549.199C259.517 549.199 258.376 548.903 257.372 548.311C256.369 547.719 255.578 546.865 255 545.747C254.423 544.63 254.134 543.29 254.134 541.727C254.134 540.16 254.425 538.82 255.007 537.707C255.59 536.59 256.383 535.735 257.387 535.143C258.39 534.552 259.527 534.256 260.796 534.256C261.605 534.256 262.358 534.369 263.054 534.597C263.75 534.824 264.37 535.158 264.915 535.598C265.459 536.034 265.907 536.569 266.257 537.203C266.612 537.833 266.844 538.553 266.953 539.362Z" fill="#004EEB"/>
<rect x="290" y="521" width="180" height="6" rx="2" fill="#EAECF0"/>
<rect x="290" y="536" width="196" height="6" rx="2" fill="#EAECF0"/>
<rect x="290" y="551" width="103" height="6" rx="2" fill="#EAECF0"/>
<rect x="225.5" y="509.5" width="286" height="63" rx="11.5" stroke="#B2CCFF"/>
</g>
<g filter="url(#filter3_dd_773_7329)">
<g clip-path="url(#clip0_773_7329)">
<rect x="96" y="52" width="243" height="240" rx="12" fill="white"/>
<mask id="path-23-inside-1_773_7329" fill="white">
<path d="M96 52H339V92H96V52Z"/>
</mask>
<path d="M96 52H339V92H96V52Z" fill="#EFF4FF"/>
<path d="M339 91H96V93H339V91Z" fill="#155EEF" mask="url(#path-23-inside-1_773_7329)"/>
<g clip-path="url(#clip1_773_7329)">
<path d="M257 252V292H259V252H257ZM178 292V252H176V292H178Z" fill="#155EEF" mask="url(#path-27-inside-3_773_7329)"/>
</g>
<path d="M96 253H339V251H96V253Z" fill="#155EEF" mask="url(#path-25-inside-2_773_7329)"/>
<path d="M112 205C112 198.373 117.373 193 124 193H275C281.627 193 287 198.373 287 205V224C287 230.627 281.627 236 275 236H112V205Z" fill="#155EEF"/>
<rect x="125" y="204" width="136" height="4" rx="2" fill="#EAECF0"/>
<rect x="125" y="213" width="147" height="4" rx="2" fill="#EAECF0"/>
<rect x="125" y="222" width="96" height="4" rx="2" fill="#EAECF0"/>
<rect x="112" y="158" width="28" height="28" rx="14" fill="#D1E0FF"/>
</g>
<rect x="96.5" y="52.5" width="242" height="239" rx="11.5" stroke="#155EEF"/>
</g>
<defs>
<filter id="filter0_dd_773_7329" x="219" y="314" width="299" height="76" filterUnits="userSpaceOnUse" color-interpolation-filters="sRGB">
<feFlood flood-opacity="0" result="BackgroundImageFix"/>
<feColorMatrix in="SourceAlpha" type="matrix" values="0 0 0 0 0 0 0 0 0 0 0 0 0 0 0 0 0 0 127 0" result="hardAlpha"/>
<feMorphology radius="2" operator="erode" in="SourceAlpha" result="effect1_dropShadow_773_7329"/>
<feOffset dy="2"/>
<feGaussianBlur stdDeviation="2"/>
<feColorMatrix type="matrix" values="0 0 0 0 0.0627451 0 0 0 0 0.0941176 0 0 0 0 0.156863 0 0 0 0.06 0"/>
<feBlend mode="normal" in2="BackgroundImageFix" result="effect1_dropShadow_773_7329"/>
<feColorMatrix in="SourceAlpha" type="matrix" values="0 0 0 0 0 0 0 0 0 0 0 0 0 0 0 0 0 0 127 0" result="hardAlpha"/>
<feMorphology radius="2" operator="erode" in="SourceAlpha" result="effect2_dropShadow_773_7329"/>
<feOffset dy="4"/>
<feGaussianBlur stdDeviation="4"/>
<feColorMatrix type="matrix" values="0 0 0 0 0.0627451 0 0 0 0 0.0941176 0 0 0 0 0.156863 0 0 0 0.1 0"/>
<feBlend mode="normal" in2="effect1_dropShadow_773_7329" result="effect2_dropShadow_773_7329"/>
<feBlend mode="normal" in="SourceGraphic" in2="effect2_dropShadow_773_7329" result="shape"/>
</filter>
<filter id="filter1_dd_773_7329" x="219" y="394" width="299" height="109" filterUnits="userSpaceOnUse" color-interpolation-filters="sRGB">
<feFlood flood-opacity="0" result="BackgroundImageFix"/>
<feColorMatrix in="SourceAlpha" type="matrix" values="0 0 0 0 0 0 0 0 0 0 0 0 0 0 0 0 0 0 127 0" result="hardAlpha"/>
<feMorphology radius="2" operator="erode" in="SourceAlpha" result="effect1_dropShadow_773_7329"/>
<feOffset dy="2"/>
<feGaussianBlur stdDeviation="2"/>
<feColorMatrix type="matrix" values="0 0 0 0 0.0627451 0 0 0 0 0.0941176 0 0 0 0 0.156863 0 0 0 0.06 0"/>
<feBlend mode="normal" in2="BackgroundImageFix" result="effect1_dropShadow_773_7329"/>
<feColorMatrix in="SourceAlpha" type="matrix" values="0 0 0 0 0 0 0 0 0 0 0 0 0 0 0 0 0 0 127 0" result="hardAlpha"/>
<feMorphology radius="2" operator="erode" in="SourceAlpha" result="effect2_dropShadow_773_7329"/>
<feOffset dy="4"/>
<feGaussianBlur stdDeviation="4"/>
<feColorMatrix type="matrix" values="0 0 0 0 0.0627451 0 0 0 0 0.0941176 0 0 0 0 0.156863 0 0 0 0.1 0"/>
<feBlend mode="normal" in2="effect1_dropShadow_773_7329" result="effect2_dropShadow_773_7329"/>
<feBlend mode="normal" in="SourceGraphic" in2="effect2_dropShadow_773_7329" result="shape"/>
</filter>
<filter id="filter2_dd_773_7329" x="219" y="507" width="299" height="76" filterUnits="userSpaceOnUse" color-interpolation-filters="sRGB">
<feFlood flood-opacity="0" result="BackgroundImageFix"/>
<feColorMatrix in="SourceAlpha" type="matrix" values="0 0 0 0 0 0 0 0 0 0 0 0 0 0 0 0 0 0 127 0" result="hardAlpha"/>
<feMorphology radius="2" operator="erode" in="SourceAlpha" result="effect1_dropShadow_773_7329"/>
<feOffset dy="2"/>
<feGaussianBlur stdDeviation="2"/>
<feColorMatrix type="matrix" values="0 0 0 0 0.0627451 0 0 0 0 0.0941176 0 0 0 0 0.156863 0 0 0 0.06 0"/>
<feBlend mode="normal" in2="BackgroundImageFix" result="effect1_dropShadow_773_7329"/>
<feColorMatrix in="SourceAlpha" type="matrix" values="0 0 0 0 0 0 0 0 0 0 0 0 0 0 0 0 0 0 127 0" result="hardAlpha"/>
<feMorphology radius="2" operator="erode" in="SourceAlpha" result="effect2_dropShadow_773_7329"/>
<feOffset dy="4"/>
<feGaussianBlur stdDeviation="4"/>
<feColorMatrix type="matrix" values="0 0 0 0 0.0627451 0 0 0 0 0.0941176 0 0 0 0 0.156863 0 0 0 0.1 0"/>
<feBlend mode="normal" in2="effect1_dropShadow_773_7329" result="effect2_dropShadow_773_7329"/>
<feBlend mode="normal" in="SourceGraphic" in2="effect2_dropShadow_773_7329" result="shape"/>
</filter>
<filter id="filter3_dd_773_7329" x="90" y="50" width="255" height="252" filterUnits="userSpaceOnUse" color-interpolation-filters="sRGB">
<feFlood flood-opacity="0" result="BackgroundImageFix"/>
<feColorMatrix in="SourceAlpha" type="matrix" values="0 0 0 0 0 0 0 0 0 0 0 0 0 0 0 0 0 0 127 0" result="hardAlpha"/>
<feMorphology radius="2" operator="erode" in="SourceAlpha" result="effect1_dropShadow_773_7329"/>
<feOffset dy="2"/>
<feGaussianBlur stdDeviation="2"/>
<feColorMatrix type="matrix" values="0 0 0 0 0.0627451 0 0 0 0 0.0941176 0 0 0 0 0.156863 0 0 0 0.06 0"/>
<feBlend mode="normal" in2="BackgroundImageFix" result="effect1_dropShadow_773_7329"/>
<feColorMatrix in="SourceAlpha" type="matrix" values="0 0 0 0 0 0 0 0 0 0 0 0 0 0 0 0 0 0 127 0" result="hardAlpha"/>
<feMorphology radius="2" operator="erode" in="SourceAlpha" result="effect2_dropShadow_773_7329"/>
<feOffset dy="4"/>
<feGaussianBlur stdDeviation="4"/>
<feColorMatrix type="matrix" values="0 0 0 0 0.0627451 0 0 0 0 0.0941176 0 0 0 0 0.156863 0 0 0 0.1 0"/>
<feBlend mode="normal" in2="effect1_dropShadow_773_7329" result="effect2_dropShadow_773_7329"/>
<feBlend mode="normal" in="SourceGraphic" in2="effect2_dropShadow_773_7329" result="shape"/>
</filter>
<clipPath id="clip0_773_7329">
<rect x="96" y="52" width="243" height="240" rx="12" fill="white"/>
</clipPath>
<clipPath id="clip1_773_7329">
<path d="M96 252H339V292H96V252Z" fill="white"/>
</clipPath>
</defs>
</svg>
